<?xml version="1.0" encoding="utf-8" standalone="no"?>
<!DOCTYPE svg PUBLIC "-//W3C//DTD SVG 1.1//EN"
  "http://www.w3.org/Graphics/SVG/1.1/DTD/svg11.dtd">
<svg xmlns:xlink="http://www.w3.org/1999/xlink" width="1008pt" height="288pt" viewBox="0 0 1008 288" xmlns="http://www.w3.org/2000/svg" version="1.1">
 <metadata>
  <rdf:RDF xmlns:dc="http://purl.org/dc/elements/1.1/" xmlns:cc="http://creativecommons.org/ns#" xmlns:rdf="http://www.w3.org/1999/02/22-rdf-syntax-ns#">
   <cc:Work>
    <dc:type rdf:resource="http://purl.org/dc/dcmitype/StillImage"/>
    <dc:date>2025-11-28T18:40:29.903204</dc:date>
    <dc:format>image/svg+xml</dc:format>
    <dc:creator>
     <cc:Agent>
      <dc:title>Matplotlib v3.9.2, https://matplotlib.org/</dc:title>
     </cc:Agent>
    </dc:creator>
   </cc:Work>
  </rdf:RDF>
 </metadata>
 <defs>
  <style type="text/css">*{stroke-linejoin: round; stroke-linecap: butt}</style>
 </defs>
 <g id="figure_1">
  <g id="patch_1">
   <path d="M 0 288 
L 1008 288 
L 1008 0 
L 0 0 
z
" style="fill: #ffffff"/>
  </g>
  <g id="axes_1">
   <g id="patch_2">
    <path d="M 93.35 246.04 
L 963.34 246.04 
L 963.34 10.8 
L 93.35 10.8 
z
" style="fill: #ffffff"/>
   </g>
   <g id="matplotlib.axis_1">
    <g id="xtick_1">
     <g id="line2d_1">
      <defs>
       <path id="m1dd1538aa6" d="M 0 0 
L 0 3.5 
" style="stroke: #000000; stroke-width: 0.8"/>
      </defs>
      <g>
       <use xlink:href="#m1dd1538aa6" x="103.067871" y="246.04" style="stroke: #000000; stroke-width: 0.8"/>
      </g>
     </g>
     <g id="text_1">
      <!-- 2023-07 -->
      <g transform="translate(82.176465 260.638438) scale(0.1 -0.1)">
       <defs>
        <path id="DejaVuSans-32" d="M 1228 531 
L 3431 531 
L 3431 0 
L 469 0 
L 469 531 
Q 828 903 1448 1529 
Q 2069 2156 2228 2338 
Q 2531 2678 2651 2914 
Q 2772 3150 2772 3378 
Q 2772 3750 2511 3984 
Q 2250 4219 1831 4219 
Q 1534 4219 1204 4116 
Q 875 4013 500 3803 
L 500 4441 
Q 881 4594 1212 4672 
Q 1544 4750 1819 4750 
Q 2544 4750 2975 4387 
Q 3406 4025 3406 3419 
Q 3406 3131 3298 2873 
Q 3191 2616 2906 2266 
Q 2828 2175 2409 1742 
Q 1991 1309 1228 531 
z
" transform="scale(0.015625)"/>
        <path id="DejaVuSans-30" d="M 2034 4250 
Q 1547 4250 1301 3770 
Q 1056 3291 1056 2328 
Q 1056 1369 1301 889 
Q 1547 409 2034 409 
Q 2525 409 2770 889 
Q 3016 1369 3016 2328 
Q 3016 3291 2770 3770 
Q 2525 4250 2034 4250 
z
M 2034 4750 
Q 2819 4750 3233 4129 
Q 3647 3509 3647 2328 
Q 3647 1150 3233 529 
Q 2819 -91 2034 -91 
Q 1250 -91 836 529 
Q 422 1150 422 2328 
Q 422 3509 836 4129 
Q 1250 4750 2034 4750 
z
" transform="scale(0.015625)"/>
        <path id="DejaVuSans-33" d="M 2597 2516 
Q 3050 2419 3304 2112 
Q 3559 1806 3559 1356 
Q 3559 666 3084 287 
Q 2609 -91 1734 -91 
Q 1441 -91 1130 -33 
Q 819 25 488 141 
L 488 750 
Q 750 597 1062 519 
Q 1375 441 1716 441 
Q 2309 441 2620 675 
Q 2931 909 2931 1356 
Q 2931 1769 2642 2001 
Q 2353 2234 1838 2234 
L 1294 2234 
L 1294 2753 
L 1863 2753 
Q 2328 2753 2575 2939 
Q 2822 3125 2822 3475 
Q 2822 3834 2567 4026 
Q 2313 4219 1838 4219 
Q 1578 4219 1281 4162 
Q 984 4106 628 3988 
L 628 4550 
Q 988 4650 1302 4700 
Q 1616 4750 1894 4750 
Q 2613 4750 3031 4423 
Q 3450 4097 3450 3541 
Q 3450 3153 3228 2886 
Q 3006 2619 2597 2516 
z
" transform="scale(0.015625)"/>
        <path id="DejaVuSans-2d" d="M 313 2009 
L 1997 2009 
L 1997 1497 
L 313 1497 
L 313 2009 
z
" transform="scale(0.015625)"/>
        <path id="DejaVuSans-37" d="M 525 4666 
L 3525 4666 
L 3525 4397 
L 1831 0 
L 1172 0 
L 2766 4134 
L 525 4134 
L 525 4666 
z
" transform="scale(0.015625)"/>
       </defs>
       <use xlink:href="#DejaVuSans-32"/>
       <use xlink:href="#DejaVuSans-30" x="63.623047"/>
       <use xlink:href="#DejaVuSans-32" x="127.246094"/>
       <use xlink:href="#DejaVuSans-33" x="190.869141"/>
       <use xlink:href="#DejaVuSans-2d" x="254.492188"/>
       <use xlink:href="#DejaVuSans-30" x="290.576172"/>
       <use xlink:href="#DejaVuSans-37" x="354.199219"/>
      </g>
     </g>
    </g>
    <g id="xtick_2">
     <g id="line2d_2">
      <g>
       <use xlink:href="#m1dd1538aa6" x="191.587092" y="246.04" style="stroke: #000000; stroke-width: 0.8"/>
      </g>
     </g>
     <g id="text_2">
      <!-- 2023-10 -->
      <g transform="translate(170.695686 260.638438) scale(0.1 -0.1)">
       <defs>
        <path id="DejaVuSans-31" d="M 794 531 
L 1825 531 
L 1825 4091 
L 703 3866 
L 703 4441 
L 1819 4666 
L 2450 4666 
L 2450 531 
L 3481 531 
L 3481 0 
L 794 0 
L 794 531 
z
" transform="scale(0.015625)"/>
       </defs>
       <use xlink:href="#DejaVuSans-32"/>
       <use xlink:href="#DejaVuSans-30" x="63.623047"/>
       <use xlink:href="#DejaVuSans-32" x="127.246094"/>
       <use xlink:href="#DejaVuSans-33" x="190.869141"/>
       <use xlink:href="#DejaVuSans-2d" x="254.492188"/>
       <use xlink:href="#DejaVuSans-31" x="290.576172"/>
       <use xlink:href="#DejaVuSans-30" x="354.199219"/>
      </g>
     </g>
    </g>
    <g id="xtick_3">
     <g id="line2d_3">
      <g>
       <use xlink:href="#m1dd1538aa6" x="280.106314" y="246.04" style="stroke: #000000; stroke-width: 0.8"/>
      </g>
     </g>
     <g id="text_3">
      <!-- 2024-01 -->
      <g transform="translate(259.214908 260.638438) scale(0.1 -0.1)">
       <defs>
        <path id="DejaVuSans-34" d="M 2419 4116 
L 825 1625 
L 2419 1625 
L 2419 4116 
z
M 2253 4666 
L 3047 4666 
L 3047 1625 
L 3713 1625 
L 3713 1100 
L 3047 1100 
L 3047 0 
L 2419 0 
L 2419 1100 
L 313 1100 
L 313 1709 
L 2253 4666 
z
" transform="scale(0.015625)"/>
       </defs>
       <use xlink:href="#DejaVuSans-32"/>
       <use xlink:href="#DejaVuSans-30" x="63.623047"/>
       <use xlink:href="#DejaVuSans-32" x="127.246094"/>
       <use xlink:href="#DejaVuSans-34" x="190.869141"/>
       <use xlink:href="#DejaVuSans-2d" x="254.492188"/>
       <use xlink:href="#DejaVuSans-30" x="290.576172"/>
       <use xlink:href="#DejaVuSans-31" x="354.199219"/>
      </g>
     </g>
    </g>
    <g id="xtick_4">
     <g id="line2d_4">
      <g>
       <use xlink:href="#m1dd1538aa6" x="367.66337" y="246.04" style="stroke: #000000; stroke-width: 0.8"/>
      </g>
     </g>
     <g id="text_4">
      <!-- 2024-04 -->
      <g transform="translate(346.771964 260.638438) scale(0.1 -0.1)">
       <use xlink:href="#DejaVuSans-32"/>
       <use xlink:href="#DejaVuSans-30" x="63.623047"/>
       <use xlink:href="#DejaVuSans-32" x="127.246094"/>
       <use xlink:href="#DejaVuSans-34" x="190.869141"/>
       <use xlink:href="#DejaVuSans-2d" x="254.492188"/>
       <use xlink:href="#DejaVuSans-30" x="290.576172"/>
       <use xlink:href="#DejaVuSans-34" x="354.199219"/>
      </g>
     </g>
    </g>
    <g id="xtick_5">
     <g id="line2d_5">
      <g>
       <use xlink:href="#m1dd1538aa6" x="455.220426" y="246.04" style="stroke: #000000; stroke-width: 0.8"/>
      </g>
     </g>
     <g id="text_5">
      <!-- 2024-07 -->
      <g transform="translate(434.32902 260.638438) scale(0.1 -0.1)">
       <use xlink:href="#DejaVuSans-32"/>
       <use xlink:href="#DejaVuSans-30" x="63.623047"/>
       <use xlink:href="#DejaVuSans-32" x="127.246094"/>
       <use xlink:href="#DejaVuSans-34" x="190.869141"/>
       <use xlink:href="#DejaVuSans-2d" x="254.492188"/>
       <use xlink:href="#DejaVuSans-30" x="290.576172"/>
       <use xlink:href="#DejaVuSans-37" x="354.199219"/>
      </g>
     </g>
    </g>
    <g id="xtick_6">
     <g id="line2d_6">
      <g>
       <use xlink:href="#m1dd1538aa6" x="543.739647" y="246.04" style="stroke: #000000; stroke-width: 0.8"/>
      </g>
     </g>
     <g id="text_6">
      <!-- 2024-10 -->
      <g transform="translate(522.848241 260.638438) scale(0.1 -0.1)">
       <use xlink:href="#DejaVuSans-32"/>
       <use xlink:href="#DejaVuSans-30" x="63.623047"/>
       <use xlink:href="#DejaVuSans-32" x="127.246094"/>
       <use xlink:href="#DejaVuSans-34" x="190.869141"/>
       <use xlink:href="#DejaVuSans-2d" x="254.492188"/>
       <use xlink:href="#DejaVuSans-31" x="290.576172"/>
       <use xlink:href="#DejaVuSans-30" x="354.199219"/>
      </g>
     </g>
    </g>
    <g id="xtick_7">
     <g id="line2d_7">
      <g>
       <use xlink:href="#m1dd1538aa6" x="632.258869" y="246.04" style="stroke: #000000; stroke-width: 0.8"/>
      </g>
     </g>
     <g id="text_7">
      <!-- 2025-01 -->
      <g transform="translate(611.367462 260.638438) scale(0.1 -0.1)">
       <defs>
        <path id="DejaVuSans-35" d="M 691 4666 
L 3169 4666 
L 3169 4134 
L 1269 4134 
L 1269 2991 
Q 1406 3038 1543 3061 
Q 1681 3084 1819 3084 
Q 2600 3084 3056 2656 
Q 3513 2228 3513 1497 
Q 3513 744 3044 326 
Q 2575 -91 1722 -91 
Q 1428 -91 1123 -41 
Q 819 9 494 109 
L 494 744 
Q 775 591 1075 516 
Q 1375 441 1709 441 
Q 2250 441 2565 725 
Q 2881 1009 2881 1497 
Q 2881 1984 2565 2268 
Q 2250 2553 1709 2553 
Q 1456 2553 1204 2497 
Q 953 2441 691 2322 
L 691 4666 
z
" transform="scale(0.015625)"/>
       </defs>
       <use xlink:href="#DejaVuSans-32"/>
       <use xlink:href="#DejaVuSans-30" x="63.623047"/>
       <use xlink:href="#DejaVuSans-32" x="127.246094"/>
       <use xlink:href="#DejaVuSans-35" x="190.869141"/>
       <use xlink:href="#DejaVuSans-2d" x="254.492188"/>
       <use xlink:href="#DejaVuSans-30" x="290.576172"/>
       <use xlink:href="#DejaVuSans-31" x="354.199219"/>
      </g>
     </g>
    </g>
    <g id="xtick_8">
     <g id="line2d_8">
      <g>
       <use xlink:href="#m1dd1538aa6" x="718.853759" y="246.04" style="stroke: #000000; stroke-width: 0.8"/>
      </g>
     </g>
     <g id="text_8">
      <!-- 2025-04 -->
      <g transform="translate(697.962353 260.638438) scale(0.1 -0.1)">
       <use xlink:href="#DejaVuSans-32"/>
       <use xlink:href="#DejaVuSans-30" x="63.623047"/>
       <use xlink:href="#DejaVuSans-32" x="127.246094"/>
       <use xlink:href="#DejaVuSans-35" x="190.869141"/>
       <use xlink:href="#DejaVuSans-2d" x="254.492188"/>
       <use xlink:href="#DejaVuSans-30" x="290.576172"/>
       <use xlink:href="#DejaVuSans-34" x="354.199219"/>
      </g>
     </g>
    </g>
    <g id="xtick_9">
     <g id="line2d_9">
      <g>
       <use xlink:href="#m1dd1538aa6" x="806.410815" y="246.04" style="stroke: #000000; stroke-width: 0.8"/>
      </g>
     </g>
     <g id="text_9">
      <!-- 2025-07 -->
      <g transform="translate(785.519409 260.638438) scale(0.1 -0.1)">
       <use xlink:href="#DejaVuSans-32"/>
       <use xlink:href="#DejaVuSans-30" x="63.623047"/>
       <use xlink:href="#DejaVuSans-32" x="127.246094"/>
       <use xlink:href="#DejaVuSans-35" x="190.869141"/>
       <use xlink:href="#DejaVuSans-2d" x="254.492188"/>
       <use xlink:href="#DejaVuSans-30" x="290.576172"/>
       <use xlink:href="#DejaVuSans-37" x="354.199219"/>
      </g>
     </g>
    </g>
    <g id="xtick_10">
     <g id="line2d_10">
      <g>
       <use xlink:href="#m1dd1538aa6" x="894.930036" y="246.04" style="stroke: #000000; stroke-width: 0.8"/>
      </g>
     </g>
     <g id="text_10">
      <!-- 2025-10 -->
      <g transform="translate(874.03863 260.638438) scale(0.1 -0.1)">
       <use xlink:href="#DejaVuSans-32"/>
       <use xlink:href="#DejaVuSans-30" x="63.623047"/>
       <use xlink:href="#DejaVuSans-32" x="127.246094"/>
       <use xlink:href="#DejaVuSans-35" x="190.869141"/>
       <use xlink:href="#DejaVuSans-2d" x="254.492188"/>
       <use xlink:href="#DejaVuSans-31" x="290.576172"/>
       <use xlink:href="#DejaVuSans-30" x="354.199219"/>
      </g>
     </g>
    </g>
    <g id="text_11">
     <!-- Date -->
     <g transform="translate(516.394219 274.316562) scale(0.1 -0.1)">
      <defs>
       <path id="DejaVuSans-44" d="M 1259 4147 
L 1259 519 
L 2022 519 
Q 2988 519 3436 956 
Q 3884 1394 3884 2338 
Q 3884 3275 3436 3711 
Q 2988 4147 2022 4147 
L 1259 4147 
z
M 628 4666 
L 1925 4666 
Q 3281 4666 3915 4102 
Q 4550 3538 4550 2338 
Q 4550 1131 3912 565 
Q 3275 0 1925 0 
L 628 0 
L 628 4666 
z
" transform="scale(0.015625)"/>
       <path id="DejaVuSans-61" d="M 2194 1759 
Q 1497 1759 1228 1600 
Q 959 1441 959 1056 
Q 959 750 1161 570 
Q 1363 391 1709 391 
Q 2188 391 2477 730 
Q 2766 1069 2766 1631 
L 2766 1759 
L 2194 1759 
z
M 3341 1997 
L 3341 0 
L 2766 0 
L 2766 531 
Q 2569 213 2275 61 
Q 1981 -91 1556 -91 
Q 1019 -91 701 211 
Q 384 513 384 1019 
Q 384 1609 779 1909 
Q 1175 2209 1959 2209 
L 2766 2209 
L 2766 2266 
Q 2766 2663 2505 2880 
Q 2244 3097 1772 3097 
Q 1472 3097 1187 3025 
Q 903 2953 641 2809 
L 641 3341 
Q 956 3463 1253 3523 
Q 1550 3584 1831 3584 
Q 2591 3584 2966 3190 
Q 3341 2797 3341 1997 
z
" transform="scale(0.015625)"/>
       <path id="DejaVuSans-74" d="M 1172 4494 
L 1172 3500 
L 2356 3500 
L 2356 3053 
L 1172 3053 
L 1172 1153 
Q 1172 725 1289 603 
Q 1406 481 1766 481 
L 2356 481 
L 2356 0 
L 1766 0 
Q 1100 0 847 248 
Q 594 497 594 1153 
L 594 3053 
L 172 3053 
L 172 3500 
L 594 3500 
L 594 4494 
L 1172 4494 
z
" transform="scale(0.015625)"/>
       <path id="DejaVuSans-65" d="M 3597 1894 
L 3597 1613 
L 953 1613 
Q 991 1019 1311 708 
Q 1631 397 2203 397 
Q 2534 397 2845 478 
Q 3156 559 3463 722 
L 3463 178 
Q 3153 47 2828 -22 
Q 2503 -91 2169 -91 
Q 1331 -91 842 396 
Q 353 884 353 1716 
Q 353 2575 817 3079 
Q 1281 3584 2069 3584 
Q 2775 3584 3186 3129 
Q 3597 2675 3597 1894 
z
M 3022 2063 
Q 3016 2534 2758 2815 
Q 2500 3097 2075 3097 
Q 1594 3097 1305 2825 
Q 1016 2553 972 2059 
L 3022 2063 
z
" transform="scale(0.015625)"/>
      </defs>
      <use xlink:href="#DejaVuSans-44"/>
      <use xlink:href="#DejaVuSans-61" x="77.001953"/>
      <use xlink:href="#DejaVuSans-74" x="138.28125"/>
      <use xlink:href="#DejaVuSans-65" x="177.490234"/>
     </g>
    </g>
   </g>
   <g id="matplotlib.axis_2">
    <g id="ytick_1">
     <g id="line2d_11">
      <defs>
       <path id="m8ef498810b" d="M 0 0 
L -3.5 0 
" style="stroke: #000000; stroke-width: 0.8"/>
      </defs>
      <g>
       <use xlink:href="#m8ef498810b" x="93.35" y="218.896923" style="stroke: #000000; stroke-width: 0.8"/>
      </g>
     </g>
     <g id="text_12">
      <!-- ordinary (0) -->
      <g transform="translate(27.329688 222.696142) scale(0.1 -0.1)">
       <defs>
        <path id="DejaVuSans-6f" d="M 1959 3097 
Q 1497 3097 1228 2736 
Q 959 2375 959 1747 
Q 959 1119 1226 758 
Q 1494 397 1959 397 
Q 2419 397 2687 759 
Q 2956 1122 2956 1747 
Q 2956 2369 2687 2733 
Q 2419 3097 1959 3097 
z
M 1959 3584 
Q 2709 3584 3137 3096 
Q 3566 2609 3566 1747 
Q 3566 888 3137 398 
Q 2709 -91 1959 -91 
Q 1206 -91 779 398 
Q 353 888 353 1747 
Q 353 2609 779 3096 
Q 1206 3584 1959 3584 
z
" transform="scale(0.015625)"/>
        <path id="DejaVuSans-72" d="M 2631 2963 
Q 2534 3019 2420 3045 
Q 2306 3072 2169 3072 
Q 1681 3072 1420 2755 
Q 1159 2438 1159 1844 
L 1159 0 
L 581 0 
L 581 3500 
L 1159 3500 
L 1159 2956 
Q 1341 3275 1631 3429 
Q 1922 3584 2338 3584 
Q 2397 3584 2469 3576 
Q 2541 3569 2628 3553 
L 2631 2963 
z
" transform="scale(0.015625)"/>
        <path id="DejaVuSans-64" d="M 2906 2969 
L 2906 4863 
L 3481 4863 
L 3481 0 
L 2906 0 
L 2906 525 
Q 2725 213 2448 61 
Q 2172 -91 1784 -91 
Q 1150 -91 751 415 
Q 353 922 353 1747 
Q 353 2572 751 3078 
Q 1150 3584 1784 3584 
Q 2172 3584 2448 3432 
Q 2725 3281 2906 2969 
z
M 947 1747 
Q 947 1113 1208 752 
Q 1469 391 1925 391 
Q 2381 391 2643 752 
Q 2906 1113 2906 1747 
Q 2906 2381 2643 2742 
Q 2381 3103 1925 3103 
Q 1469 3103 1208 2742 
Q 947 2381 947 1747 
z
" transform="scale(0.015625)"/>
        <path id="DejaVuSans-69" d="M 603 3500 
L 1178 3500 
L 1178 0 
L 603 0 
L 603 3500 
z
M 603 4863 
L 1178 4863 
L 1178 4134 
L 603 4134 
L 603 4863 
z
" transform="scale(0.015625)"/>
        <path id="DejaVuSans-6e" d="M 3513 2113 
L 3513 0 
L 2938 0 
L 2938 2094 
Q 2938 2591 2744 2837 
Q 2550 3084 2163 3084 
Q 1697 3084 1428 2787 
Q 1159 2491 1159 1978 
L 1159 0 
L 581 0 
L 581 3500 
L 1159 3500 
L 1159 2956 
Q 1366 3272 1645 3428 
Q 1925 3584 2291 3584 
Q 2894 3584 3203 3211 
Q 3513 2838 3513 2113 
z
" transform="scale(0.015625)"/>
        <path id="DejaVuSans-79" d="M 2059 -325 
Q 1816 -950 1584 -1140 
Q 1353 -1331 966 -1331 
L 506 -1331 
L 506 -850 
L 844 -850 
Q 1081 -850 1212 -737 
Q 1344 -625 1503 -206 
L 1606 56 
L 191 3500 
L 800 3500 
L 1894 763 
L 2988 3500 
L 3597 3500 
L 2059 -325 
z
" transform="scale(0.015625)"/>
        <path id="DejaVuSans-20" transform="scale(0.015625)"/>
        <path id="DejaVuSans-28" d="M 1984 4856 
Q 1566 4138 1362 3434 
Q 1159 2731 1159 2009 
Q 1159 1288 1364 580 
Q 1569 -128 1984 -844 
L 1484 -844 
Q 1016 -109 783 600 
Q 550 1309 550 2009 
Q 550 2706 781 3412 
Q 1013 4119 1484 4856 
L 1984 4856 
z
" transform="scale(0.015625)"/>
        <path id="DejaVuSans-29" d="M 513 4856 
L 1013 4856 
Q 1481 4119 1714 3412 
Q 1947 2706 1947 2009 
Q 1947 1309 1714 600 
Q 1481 -109 1013 -844 
L 513 -844 
Q 928 -128 1133 580 
Q 1338 1288 1338 2009 
Q 1338 2731 1133 3434 
Q 928 4138 513 4856 
z
" transform="scale(0.015625)"/>
       </defs>
       <use xlink:href="#DejaVuSans-6f"/>
       <use xlink:href="#DejaVuSans-72" x="61.181641"/>
       <use xlink:href="#DejaVuSans-64" x="100.544922"/>
       <use xlink:href="#DejaVuSans-69" x="164.021484"/>
       <use xlink:href="#DejaVuSans-6e" x="191.804688"/>
       <use xlink:href="#DejaVuSans-61" x="255.183594"/>
       <use xlink:href="#DejaVuSans-72" x="316.462891"/>
       <use xlink:href="#DejaVuSans-79" x="357.576172"/>
       <use xlink:href="#DejaVuSans-20" x="416.755859"/>
       <use xlink:href="#DejaVuSans-28" x="448.542969"/>
       <use xlink:href="#DejaVuSans-30" x="487.556641"/>
       <use xlink:href="#DejaVuSans-29" x="551.179688"/>
      </g>
     </g>
    </g>
    <g id="ytick_2">
     <g id="line2d_12">
      <g>
       <use xlink:href="#m8ef498810b" x="93.35" y="128.42" style="stroke: #000000; stroke-width: 0.8"/>
      </g>
     </g>
     <g id="text_13">
      <!-- partial (1) -->
      <g transform="translate(36.814063 132.219219) scale(0.1 -0.1)">
       <defs>
        <path id="DejaVuSans-70" d="M 1159 525 
L 1159 -1331 
L 581 -1331 
L 581 3500 
L 1159 3500 
L 1159 2969 
Q 1341 3281 1617 3432 
Q 1894 3584 2278 3584 
Q 2916 3584 3314 3078 
Q 3713 2572 3713 1747 
Q 3713 922 3314 415 
Q 2916 -91 2278 -91 
Q 1894 -91 1617 61 
Q 1341 213 1159 525 
z
M 3116 1747 
Q 3116 2381 2855 2742 
Q 2594 3103 2138 3103 
Q 1681 3103 1420 2742 
Q 1159 2381 1159 1747 
Q 1159 1113 1420 752 
Q 1681 391 2138 391 
Q 2594 391 2855 752 
Q 3116 1113 3116 1747 
z
" transform="scale(0.015625)"/>
        <path id="DejaVuSans-6c" d="M 603 4863 
L 1178 4863 
L 1178 0 
L 603 0 
L 603 4863 
z
" transform="scale(0.015625)"/>
       </defs>
       <use xlink:href="#DejaVuSans-70"/>
       <use xlink:href="#DejaVuSans-61" x="63.476562"/>
       <use xlink:href="#DejaVuSans-72" x="124.755859"/>
       <use xlink:href="#DejaVuSans-74" x="165.869141"/>
       <use xlink:href="#DejaVuSans-69" x="205.078125"/>
       <use xlink:href="#DejaVuSans-61" x="232.861328"/>
       <use xlink:href="#DejaVuSans-6c" x="294.140625"/>
       <use xlink:href="#DejaVuSans-20" x="321.923828"/>
       <use xlink:href="#DejaVuSans-28" x="353.710938"/>
       <use xlink:href="#DejaVuSans-31" x="392.724609"/>
       <use xlink:href="#DejaVuSans-29" x="456.347656"/>
      </g>
     </g>
    </g>
    <g id="ytick_3">
     <g id="line2d_13">
      <g>
       <use xlink:href="#m8ef498810b" x="93.35" y="37.943077" style="stroke: #000000; stroke-width: 0.8"/>
      </g>
     </g>
     <g id="text_14">
      <!-- takeover (2) -->
      <g transform="translate(25.075 41.742296) scale(0.1 -0.1)">
       <defs>
        <path id="DejaVuSans-6b" d="M 581 4863 
L 1159 4863 
L 1159 1991 
L 2875 3500 
L 3609 3500 
L 1753 1863 
L 3688 0 
L 2938 0 
L 1159 1709 
L 1159 0 
L 581 0 
L 581 4863 
z
" transform="scale(0.015625)"/>
        <path id="DejaVuSans-76" d="M 191 3500 
L 800 3500 
L 1894 563 
L 2988 3500 
L 3597 3500 
L 2284 0 
L 1503 0 
L 191 3500 
z
" transform="scale(0.015625)"/>
       </defs>
       <use xlink:href="#DejaVuSans-74"/>
       <use xlink:href="#DejaVuSans-61" x="39.208984"/>
       <use xlink:href="#DejaVuSans-6b" x="100.488281"/>
       <use xlink:href="#DejaVuSans-65" x="154.773438"/>
       <use xlink:href="#DejaVuSans-6f" x="216.296875"/>
       <use xlink:href="#DejaVuSans-76" x="277.478516"/>
       <use xlink:href="#DejaVuSans-65" x="336.658203"/>
       <use xlink:href="#DejaVuSans-72" x="398.181641"/>
       <use xlink:href="#DejaVuSans-20" x="439.294922"/>
       <use xlink:href="#DejaVuSans-28" x="471.082031"/>
       <use xlink:href="#DejaVuSans-32" x="510.095703"/>
       <use xlink:href="#DejaVuSans-29" x="573.71875"/>
      </g>
     </g>
    </g>
    <g id="text_15">
     <!-- Phase -->
     <g transform="translate(18.995313 143.348906) rotate(-90) scale(0.1 -0.1)">
      <defs>
       <path id="DejaVuSans-50" d="M 1259 4147 
L 1259 2394 
L 2053 2394 
Q 2494 2394 2734 2622 
Q 2975 2850 2975 3272 
Q 2975 3691 2734 3919 
Q 2494 4147 2053 4147 
L 1259 4147 
z
M 628 4666 
L 2053 4666 
Q 2838 4666 3239 4311 
Q 3641 3956 3641 3272 
Q 3641 2581 3239 2228 
Q 2838 1875 2053 1875 
L 1259 1875 
L 1259 0 
L 628 0 
L 628 4666 
z
" transform="scale(0.015625)"/>
       <path id="DejaVuSans-68" d="M 3513 2113 
L 3513 0 
L 2938 0 
L 2938 2094 
Q 2938 2591 2744 2837 
Q 2550 3084 2163 3084 
Q 1697 3084 1428 2787 
Q 1159 2491 1159 1978 
L 1159 0 
L 581 0 
L 581 4863 
L 1159 4863 
L 1159 2956 
Q 1366 3272 1645 3428 
Q 1925 3584 2291 3584 
Q 2894 3584 3203 3211 
Q 3513 2838 3513 2113 
z
" transform="scale(0.015625)"/>
       <path id="DejaVuSans-73" d="M 2834 3397 
L 2834 2853 
Q 2591 2978 2328 3040 
Q 2066 3103 1784 3103 
Q 1356 3103 1142 2972 
Q 928 2841 928 2578 
Q 928 2378 1081 2264 
Q 1234 2150 1697 2047 
L 1894 2003 
Q 2506 1872 2764 1633 
Q 3022 1394 3022 966 
Q 3022 478 2636 193 
Q 2250 -91 1575 -91 
Q 1294 -91 989 -36 
Q 684 19 347 128 
L 347 722 
Q 666 556 975 473 
Q 1284 391 1588 391 
Q 1994 391 2212 530 
Q 2431 669 2431 922 
Q 2431 1156 2273 1281 
Q 2116 1406 1581 1522 
L 1381 1569 
Q 847 1681 609 1914 
Q 372 2147 372 2553 
Q 372 3047 722 3315 
Q 1072 3584 1716 3584 
Q 2034 3584 2315 3537 
Q 2597 3491 2834 3397 
z
" transform="scale(0.015625)"/>
      </defs>
      <use xlink:href="#DejaVuSans-50"/>
      <use xlink:href="#DejaVuSans-68" x="60.302734"/>
      <use xlink:href="#DejaVuSans-61" x="123.681641"/>
      <use xlink:href="#DejaVuSans-73" x="184.960938"/>
      <use xlink:href="#DejaVuSans-65" x="237.060547"/>
     </g>
    </g>
   </g>
   <g id="line2d_14">
    <path d="M 134.819331 218.896923 
L 135.781496 218.896923 
" clip-path="url(#p036b8e6158)" style="fill: none; stroke: #808080; stroke-width: 2.5; stroke-linecap: square"/>
   </g>
   <g id="line2d_15">
    <path d="M 135.781496 218.896923 
L 136.743662 218.896923 
" clip-path="url(#p036b8e6158)" style="fill: none; stroke: #808080; stroke-width: 2.5; stroke-linecap: square"/>
   </g>
   <g id="line2d_16">
    <path d="M 136.743662 218.896923 
L 137.705827 218.896923 
" clip-path="url(#p036b8e6158)" style="fill: none; stroke: #808080; stroke-width: 2.5; stroke-linecap: square"/>
   </g>
   <g id="line2d_17">
    <path d="M 195.435754 218.896923 
L 196.39792 218.896923 
" clip-path="url(#p036b8e6158)" style="fill: none; stroke: #808080; stroke-width: 2.5; stroke-linecap: square"/>
   </g>
   <g id="line2d_18">
    <path d="M 206.019574 128.42 
L 206.98174 128.42 
" clip-path="url(#p036b8e6158)" style="fill: none; stroke: #ffa500; stroke-width: 2.5; stroke-linecap: square"/>
   </g>
   <g id="line2d_19">
    <path d="M 206.98174 128.42 
L 207.943905 128.42 
" clip-path="url(#p036b8e6158)" style="fill: none; stroke: #ffa500; stroke-width: 2.5; stroke-linecap: square"/>
   </g>
   <g id="line2d_20">
    <path d="M 207.943905 128.42 
L 208.906071 128.42 
" clip-path="url(#p036b8e6158)" style="fill: none; stroke: #ffa500; stroke-width: 2.5; stroke-linecap: square"/>
   </g>
   <g id="line2d_21">
    <path d="M 208.906071 128.42 
L 209.868236 128.42 
" clip-path="url(#p036b8e6158)" style="fill: none; stroke: #ffa500; stroke-width: 2.5; stroke-linecap: square"/>
   </g>
   <g id="line2d_22">
    <path d="M 209.868236 128.42 
L 210.830401 128.42 
" clip-path="url(#p036b8e6158)" style="fill: none; stroke: #ffa500; stroke-width: 2.5; stroke-linecap: square"/>
   </g>
   <g id="line2d_23">
    <path d="M 210.830401 128.42 
L 211.792567 128.42 
" clip-path="url(#p036b8e6158)" style="fill: none; stroke: #ffa500; stroke-width: 2.5; stroke-linecap: square"/>
   </g>
   <g id="line2d_24">
    <path d="M 211.792567 128.42 
L 211.792567 37.943077 
" clip-path="url(#p036b8e6158)" style="fill: none; stroke-dasharray: 2,3.3; stroke-dashoffset: 0; stroke: #d3d3d3; stroke-width: 2"/>
   </g>
   <g id="line2d_25">
    <path d="M 211.792567 37.943077 
L 212.754732 37.943077 
" clip-path="url(#p036b8e6158)" style="fill: none; stroke: #ff0000; stroke-width: 2.5; stroke-linecap: square"/>
   </g>
   <g id="line2d_26">
    <path d="M 212.754732 37.943077 
L 213.716898 37.943077 
" clip-path="url(#p036b8e6158)" style="fill: none; stroke: #ff0000; stroke-width: 2.5; stroke-linecap: square"/>
   </g>
   <g id="line2d_27">
    <path d="M 215.641229 37.943077 
L 216.603394 37.943077 
" clip-path="url(#p036b8e6158)" style="fill: none; stroke: #ff0000; stroke-width: 2.5; stroke-linecap: square"/>
   </g>
   <g id="line2d_28">
    <path d="M 216.603394 37.943077 
L 217.56556 37.943077 
" clip-path="url(#p036b8e6158)" style="fill: none; stroke: #ff0000; stroke-width: 2.5; stroke-linecap: square"/>
   </g>
   <g id="line2d_29">
    <path d="M 219.489891 37.943077 
L 220.452056 37.943077 
" clip-path="url(#p036b8e6158)" style="fill: none; stroke: #ff0000; stroke-width: 2.5; stroke-linecap: square"/>
   </g>
   <g id="line2d_30">
    <path d="M 223.338552 37.943077 
L 224.300718 37.943077 
" clip-path="url(#p036b8e6158)" style="fill: none; stroke: #ff0000; stroke-width: 2.5; stroke-linecap: square"/>
   </g>
   <g id="line2d_31">
    <path d="M 224.300718 37.943077 
L 225.262883 37.943077 
" clip-path="url(#p036b8e6158)" style="fill: none; stroke: #ff0000; stroke-width: 2.5; stroke-linecap: square"/>
   </g>
   <g id="line2d_32">
    <path d="M 225.262883 37.943077 
L 225.262883 128.42 
" clip-path="url(#p036b8e6158)" style="fill: none; stroke-dasharray: 2,3.3; stroke-dashoffset: 0; stroke: #d3d3d3; stroke-width: 2"/>
   </g>
   <g id="line2d_33">
    <path d="M 225.262883 128.42 
L 226.225049 128.42 
" clip-path="url(#p036b8e6158)" style="fill: none; stroke: #ffa500; stroke-width: 2.5; stroke-linecap: square"/>
   </g>
   <g id="line2d_34">
    <path d="M 235.846703 218.896923 
L 236.808869 218.896923 
" clip-path="url(#p036b8e6158)" style="fill: none; stroke: #808080; stroke-width: 2.5; stroke-linecap: square"/>
   </g>
   <g id="line2d_35">
    <path d="M 236.808869 218.896923 
L 237.771034 218.896923 
" clip-path="url(#p036b8e6158)" style="fill: none; stroke: #808080; stroke-width: 2.5; stroke-linecap: square"/>
   </g>
   <g id="line2d_36">
    <path d="M 270.484659 128.42 
L 271.446825 128.42 
" clip-path="url(#p036b8e6158)" style="fill: none; stroke: #ffa500; stroke-width: 2.5; stroke-linecap: square"/>
   </g>
   <g id="line2d_37">
    <path d="M 271.446825 128.42 
L 271.446825 218.896923 
" clip-path="url(#p036b8e6158)" style="fill: none; stroke-dasharray: 2,3.3; stroke-dashoffset: 0; stroke: #d3d3d3; stroke-width: 2"/>
   </g>
   <g id="line2d_38">
    <path d="M 271.446825 218.896923 
L 272.40899 218.896923 
" clip-path="url(#p036b8e6158)" style="fill: none; stroke: #808080; stroke-width: 2.5; stroke-linecap: square"/>
   </g>
   <g id="line2d_39">
    <path d="M 302.236119 218.896923 
L 303.198285 218.896923 
" clip-path="url(#p036b8e6158)" style="fill: none; stroke: #808080; stroke-width: 2.5; stroke-linecap: square"/>
   </g>
   <g id="line2d_40">
    <path d="M 303.198285 218.896923 
L 304.16045 218.896923 
" clip-path="url(#p036b8e6158)" style="fill: none; stroke: #808080; stroke-width: 2.5; stroke-linecap: square"/>
   </g>
   <g id="line2d_41">
    <path d="M 304.16045 218.896923 
L 304.16045 128.42 
" clip-path="url(#p036b8e6158)" style="fill: none; stroke-dasharray: 2,3.3; stroke-dashoffset: 0; stroke: #d3d3d3; stroke-width: 2"/>
   </g>
   <g id="line2d_42">
    <path d="M 321.479428 218.896923 
L 322.441594 218.896923 
" clip-path="url(#p036b8e6158)" style="fill: none; stroke: #808080; stroke-width: 2.5; stroke-linecap: square"/>
   </g>
   <g id="line2d_43">
    <path d="M 322.441594 218.896923 
L 322.441594 128.42 
" clip-path="url(#p036b8e6158)" style="fill: none; stroke-dasharray: 2,3.3; stroke-dashoffset: 0; stroke: #d3d3d3; stroke-width: 2"/>
   </g>
   <g id="line2d_44">
    <path d="M 322.441594 128.42 
L 323.403759 128.42 
" clip-path="url(#p036b8e6158)" style="fill: none; stroke: #ffa500; stroke-width: 2.5; stroke-linecap: square"/>
   </g>
   <g id="line2d_45">
    <path d="M 323.403759 128.42 
L 323.403759 218.896923 
" clip-path="url(#p036b8e6158)" style="fill: none; stroke-dasharray: 2,3.3; stroke-dashoffset: 0; stroke: #d3d3d3; stroke-width: 2"/>
   </g>
   <g id="line2d_46">
    <path d="M 326.290255 128.42 
L 327.252421 128.42 
" clip-path="url(#p036b8e6158)" style="fill: none; stroke: #ffa500; stroke-width: 2.5; stroke-linecap: square"/>
   </g>
   <g id="line2d_47">
    <path d="M 327.252421 128.42 
L 327.252421 218.896923 
" clip-path="url(#p036b8e6158)" style="fill: none; stroke-dasharray: 2,3.3; stroke-dashoffset: 0; stroke: #d3d3d3; stroke-width: 2"/>
   </g>
   <g id="line2d_48">
    <path d="M 327.252421 218.896923 
L 328.214586 218.896923 
" clip-path="url(#p036b8e6158)" style="fill: none; stroke: #808080; stroke-width: 2.5; stroke-linecap: square"/>
   </g>
   <g id="line2d_49">
    <path d="M 328.214586 218.896923 
L 329.176752 218.896923 
" clip-path="url(#p036b8e6158)" style="fill: none; stroke: #808080; stroke-width: 2.5; stroke-linecap: square"/>
   </g>
   <g id="line2d_50">
    <path d="M 347.457895 218.896923 
L 348.420061 218.896923 
" clip-path="url(#p036b8e6158)" style="fill: none; stroke: #808080; stroke-width: 2.5; stroke-linecap: square"/>
   </g>
   <g id="line2d_51">
    <path d="M 399.41483 218.896923 
L 400.376995 218.896923 
" clip-path="url(#p036b8e6158)" style="fill: none; stroke: #808080; stroke-width: 2.5; stroke-linecap: square"/>
   </g>
   <g id="line2d_52">
    <path d="M 470.615073 218.896923 
L 471.577238 218.896923 
" clip-path="url(#p036b8e6158)" style="fill: none; stroke: #808080; stroke-width: 2.5; stroke-linecap: square"/>
   </g>
   <g id="line2d_53">
    <path d="M 479.274562 128.42 
L 480.236727 128.42 
" clip-path="url(#p036b8e6158)" style="fill: none; stroke: #ffa500; stroke-width: 2.5; stroke-linecap: square"/>
   </g>
   <g id="line2d_54">
    <path d="M 480.236727 128.42 
L 480.236727 37.943077 
" clip-path="url(#p036b8e6158)" style="fill: none; stroke-dasharray: 2,3.3; stroke-dashoffset: 0; stroke: #d3d3d3; stroke-width: 2"/>
   </g>
   <g id="line2d_55">
    <path d="M 480.236727 37.943077 
L 481.198893 37.943077 
" clip-path="url(#p036b8e6158)" style="fill: none; stroke: #ff0000; stroke-width: 2.5; stroke-linecap: square"/>
   </g>
   <g id="line2d_56">
    <path d="M 481.198893 37.943077 
L 482.161058 37.943077 
" clip-path="url(#p036b8e6158)" style="fill: none; stroke: #ff0000; stroke-width: 2.5; stroke-linecap: square"/>
   </g>
   <g id="line2d_57">
    <path d="M 482.161058 37.943077 
L 483.123224 37.943077 
" clip-path="url(#p036b8e6158)" style="fill: none; stroke: #ff0000; stroke-width: 2.5; stroke-linecap: square"/>
   </g>
   <g id="line2d_58">
    <path d="M 483.123224 37.943077 
L 484.085389 37.943077 
" clip-path="url(#p036b8e6158)" style="fill: none; stroke: #ff0000; stroke-width: 2.5; stroke-linecap: square"/>
   </g>
   <g id="line2d_59">
    <path d="M 486.00972 37.943077 
L 486.971886 37.943077 
" clip-path="url(#p036b8e6158)" style="fill: none; stroke: #ff0000; stroke-width: 2.5; stroke-linecap: square"/>
   </g>
   <g id="line2d_60">
    <path d="M 486.971886 37.943077 
L 487.934051 37.943077 
" clip-path="url(#p036b8e6158)" style="fill: none; stroke: #ff0000; stroke-width: 2.5; stroke-linecap: square"/>
   </g>
   <g id="line2d_61">
    <path d="M 487.934051 37.943077 
L 488.896217 37.943077 
" clip-path="url(#p036b8e6158)" style="fill: none; stroke: #ff0000; stroke-width: 2.5; stroke-linecap: square"/>
   </g>
   <g id="line2d_62">
    <path d="M 488.896217 37.943077 
L 489.858382 37.943077 
" clip-path="url(#p036b8e6158)" style="fill: none; stroke: #ff0000; stroke-width: 2.5; stroke-linecap: square"/>
   </g>
   <g id="line2d_63">
    <path d="M 489.858382 37.943077 
L 490.820547 37.943077 
" clip-path="url(#p036b8e6158)" style="fill: none; stroke: #ff0000; stroke-width: 2.5; stroke-linecap: square"/>
   </g>
   <g id="line2d_64">
    <path d="M 490.820547 37.943077 
L 490.820547 128.42 
" clip-path="url(#p036b8e6158)" style="fill: none; stroke-dasharray: 2,3.3; stroke-dashoffset: 0; stroke: #d3d3d3; stroke-width: 2"/>
   </g>
   <g id="line2d_65">
    <path d="M 492.744878 128.42 
L 493.707044 128.42 
" clip-path="url(#p036b8e6158)" style="fill: none; stroke: #ffa500; stroke-width: 2.5; stroke-linecap: square"/>
   </g>
   <g id="line2d_66">
    <path d="M 493.707044 128.42 
L 493.707044 218.896923 
" clip-path="url(#p036b8e6158)" style="fill: none; stroke-dasharray: 2,3.3; stroke-dashoffset: 0; stroke: #d3d3d3; stroke-width: 2"/>
   </g>
   <g id="line2d_67">
    <path d="M 505.253029 128.42 
L 506.215195 128.42 
" clip-path="url(#p036b8e6158)" style="fill: none; stroke: #ffa500; stroke-width: 2.5; stroke-linecap: square"/>
   </g>
   <g id="line2d_68">
    <path d="M 515.836849 37.943077 
L 516.799015 37.943077 
" clip-path="url(#p036b8e6158)" style="fill: none; stroke: #ff0000; stroke-width: 2.5; stroke-linecap: square"/>
   </g>
   <g id="line2d_69">
    <path d="M 519.685511 37.943077 
L 520.647676 37.943077 
" clip-path="url(#p036b8e6158)" style="fill: none; stroke: #ff0000; stroke-width: 2.5; stroke-linecap: square"/>
   </g>
   <g id="line2d_70">
    <path d="M 520.647676 37.943077 
L 520.647676 128.42 
" clip-path="url(#p036b8e6158)" style="fill: none; stroke-dasharray: 2,3.3; stroke-dashoffset: 0; stroke: #d3d3d3; stroke-width: 2"/>
   </g>
   <g id="line2d_71">
    <path d="M 520.647676 128.42 
L 521.609842 128.42 
" clip-path="url(#p036b8e6158)" style="fill: none; stroke: #ffa500; stroke-width: 2.5; stroke-linecap: square"/>
   </g>
   <g id="line2d_72">
    <path d="M 523.534173 128.42 
L 524.496338 128.42 
" clip-path="url(#p036b8e6158)" style="fill: none; stroke: #ffa500; stroke-width: 2.5; stroke-linecap: square"/>
   </g>
   <g id="line2d_73">
    <path d="M 524.496338 128.42 
L 524.496338 37.943077 
" clip-path="url(#p036b8e6158)" style="fill: none; stroke-dasharray: 2,3.3; stroke-dashoffset: 0; stroke: #d3d3d3; stroke-width: 2"/>
   </g>
   <g id="line2d_74">
    <path d="M 524.496338 37.943077 
L 525.458504 37.943077 
" clip-path="url(#p036b8e6158)" style="fill: none; stroke: #ff0000; stroke-width: 2.5; stroke-linecap: square"/>
   </g>
   <g id="line2d_75">
    <path d="M 525.458504 37.943077 
L 526.420669 37.943077 
" clip-path="url(#p036b8e6158)" style="fill: none; stroke: #ff0000; stroke-width: 2.5; stroke-linecap: square"/>
   </g>
   <g id="line2d_76">
    <path d="M 528.345 37.943077 
L 529.307165 37.943077 
" clip-path="url(#p036b8e6158)" style="fill: none; stroke: #ff0000; stroke-width: 2.5; stroke-linecap: square"/>
   </g>
   <g id="line2d_77">
    <path d="M 529.307165 37.943077 
L 530.269331 37.943077 
" clip-path="url(#p036b8e6158)" style="fill: none; stroke: #ff0000; stroke-width: 2.5; stroke-linecap: square"/>
   </g>
   <g id="line2d_78">
    <path d="M 530.269331 37.943077 
L 531.231496 37.943077 
" clip-path="url(#p036b8e6158)" style="fill: none; stroke: #ff0000; stroke-width: 2.5; stroke-linecap: square"/>
   </g>
   <g id="line2d_79">
    <path d="M 531.231496 37.943077 
L 532.193662 37.943077 
" clip-path="url(#p036b8e6158)" style="fill: none; stroke: #ff0000; stroke-width: 2.5; stroke-linecap: square"/>
   </g>
   <g id="line2d_80">
    <path d="M 532.193662 37.943077 
L 533.155827 37.943077 
" clip-path="url(#p036b8e6158)" style="fill: none; stroke: #ff0000; stroke-width: 2.5; stroke-linecap: square"/>
   </g>
   <g id="line2d_81">
    <path d="M 533.155827 37.943077 
L 533.155827 128.42 
" clip-path="url(#p036b8e6158)" style="fill: none; stroke-dasharray: 2,3.3; stroke-dashoffset: 0; stroke: #d3d3d3; stroke-width: 2"/>
   </g>
   <g id="line2d_82">
    <path d="M 533.155827 128.42 
L 534.117993 128.42 
" clip-path="url(#p036b8e6158)" style="fill: none; stroke: #ffa500; stroke-width: 2.5; stroke-linecap: square"/>
   </g>
   <g id="line2d_83">
    <path d="M 534.117993 128.42 
L 535.080158 128.42 
" clip-path="url(#p036b8e6158)" style="fill: none; stroke: #ffa500; stroke-width: 2.5; stroke-linecap: square"/>
   </g>
   <g id="line2d_84">
    <path d="M 535.080158 128.42 
L 536.042324 128.42 
" clip-path="url(#p036b8e6158)" style="fill: none; stroke: #ffa500; stroke-width: 2.5; stroke-linecap: square"/>
   </g>
   <g id="line2d_85">
    <path d="M 539.890985 37.943077 
L 540.853151 37.943077 
" clip-path="url(#p036b8e6158)" style="fill: none; stroke: #ff0000; stroke-width: 2.5; stroke-linecap: square"/>
   </g>
   <g id="line2d_86">
    <path d="M 540.853151 37.943077 
L 540.853151 128.42 
" clip-path="url(#p036b8e6158)" style="fill: none; stroke-dasharray: 2,3.3; stroke-dashoffset: 0; stroke: #d3d3d3; stroke-width: 2"/>
   </g>
   <g id="line2d_87">
    <path d="M 546.626144 218.896923 
L 547.588309 218.896923 
" clip-path="url(#p036b8e6158)" style="fill: none; stroke: #808080; stroke-width: 2.5; stroke-linecap: square"/>
   </g>
   <g id="line2d_88">
    <path d="M 547.588309 218.896923 
L 548.550474 218.896923 
" clip-path="url(#p036b8e6158)" style="fill: none; stroke: #808080; stroke-width: 2.5; stroke-linecap: square"/>
   </g>
   <g id="line2d_89">
    <path d="M 548.550474 218.896923 
L 548.550474 128.42 
" clip-path="url(#p036b8e6158)" style="fill: none; stroke-dasharray: 2,3.3; stroke-dashoffset: 0; stroke: #d3d3d3; stroke-width: 2"/>
   </g>
   <g id="line2d_90">
    <path d="M 548.550474 128.42 
L 549.51264 128.42 
" clip-path="url(#p036b8e6158)" style="fill: none; stroke: #ffa500; stroke-width: 2.5; stroke-linecap: square"/>
   </g>
   <g id="line2d_91">
    <path d="M 549.51264 128.42 
L 550.474805 128.42 
" clip-path="url(#p036b8e6158)" style="fill: none; stroke: #ffa500; stroke-width: 2.5; stroke-linecap: square"/>
   </g>
   <g id="line2d_92">
    <path d="M 568.755949 218.896923 
L 569.718114 218.896923 
" clip-path="url(#p036b8e6158)" style="fill: none; stroke: #808080; stroke-width: 2.5; stroke-linecap: square"/>
   </g>
   <g id="line2d_93">
    <path d="M 569.718114 218.896923 
L 570.68028 218.896923 
" clip-path="url(#p036b8e6158)" style="fill: none; stroke: #808080; stroke-width: 2.5; stroke-linecap: square"/>
   </g>
   <g id="line2d_94">
    <path d="M 578.377603 37.943077 
L 579.339769 37.943077 
" clip-path="url(#p036b8e6158)" style="fill: none; stroke: #ff0000; stroke-width: 2.5; stroke-linecap: square"/>
   </g>
   <g id="line2d_95">
    <path d="M 583.188431 37.943077 
L 584.150596 37.943077 
" clip-path="url(#p036b8e6158)" style="fill: none; stroke: #ff0000; stroke-width: 2.5; stroke-linecap: square"/>
   </g>
   <g id="line2d_96">
    <path d="M 584.150596 37.943077 
L 585.112762 37.943077 
" clip-path="url(#p036b8e6158)" style="fill: none; stroke: #ff0000; stroke-width: 2.5; stroke-linecap: square"/>
   </g>
   <g id="line2d_97">
    <path d="M 597.620912 218.896923 
L 598.583078 218.896923 
" clip-path="url(#p036b8e6158)" style="fill: none; stroke: #808080; stroke-width: 2.5; stroke-linecap: square"/>
   </g>
   <g id="line2d_98">
    <path d="M 604.356071 37.943077 
L 605.318236 37.943077 
" clip-path="url(#p036b8e6158)" style="fill: none; stroke: #ff0000; stroke-width: 2.5; stroke-linecap: square"/>
   </g>
   <g id="line2d_99">
    <path d="M 605.318236 37.943077 
L 605.318236 128.42 
" clip-path="url(#p036b8e6158)" style="fill: none; stroke-dasharray: 2,3.3; stroke-dashoffset: 0; stroke: #d3d3d3; stroke-width: 2"/>
   </g>
   <g id="line2d_100">
    <path d="M 607.242567 128.42 
L 608.204732 128.42 
" clip-path="url(#p036b8e6158)" style="fill: none; stroke: #ffa500; stroke-width: 2.5; stroke-linecap: square"/>
   </g>
   <g id="line2d_101">
    <path d="M 615.902056 128.42 
L 616.864221 128.42 
" clip-path="url(#p036b8e6158)" style="fill: none; stroke: #ffa500; stroke-width: 2.5; stroke-linecap: square"/>
   </g>
   <g id="line2d_102">
    <path d="M 621.675049 218.896923 
L 622.637214 218.896923 
" clip-path="url(#p036b8e6158)" style="fill: none; stroke: #808080; stroke-width: 2.5; stroke-linecap: square"/>
   </g>
   <g id="line2d_103">
    <path d="M 622.637214 218.896923 
L 623.59938 218.896923 
" clip-path="url(#p036b8e6158)" style="fill: none; stroke: #808080; stroke-width: 2.5; stroke-linecap: square"/>
   </g>
   <g id="line2d_104">
    <path d="M 623.59938 218.896923 
L 624.561545 218.896923 
" clip-path="url(#p036b8e6158)" style="fill: none; stroke: #808080; stroke-width: 2.5; stroke-linecap: square"/>
   </g>
   <g id="line2d_105">
    <path d="M 624.561545 218.896923 
L 625.52371 218.896923 
" clip-path="url(#p036b8e6158)" style="fill: none; stroke: #808080; stroke-width: 2.5; stroke-linecap: square"/>
   </g>
   <g id="line2d_106">
    <path d="M 629.372372 218.896923 
L 630.334538 218.896923 
" clip-path="url(#p036b8e6158)" style="fill: none; stroke: #808080; stroke-width: 2.5; stroke-linecap: square"/>
   </g>
   <g id="line2d_107">
    <path d="M 637.069696 128.42 
L 638.031861 128.42 
" clip-path="url(#p036b8e6158)" style="fill: none; stroke: #ffa500; stroke-width: 2.5; stroke-linecap: square"/>
   </g>
   <g id="line2d_108">
    <path d="M 638.031861 128.42 
L 638.031861 218.896923 
" clip-path="url(#p036b8e6158)" style="fill: none; stroke-dasharray: 2,3.3; stroke-dashoffset: 0; stroke: #d3d3d3; stroke-width: 2"/>
   </g>
   <g id="line2d_109">
    <path d="M 638.031861 218.896923 
L 638.994027 218.896923 
" clip-path="url(#p036b8e6158)" style="fill: none; stroke: #808080; stroke-width: 2.5; stroke-linecap: square"/>
   </g>
   <g id="line2d_110">
    <path d="M 672.669818 128.42 
L 673.631983 128.42 
" clip-path="url(#p036b8e6158)" style="fill: none; stroke: #ffa500; stroke-width: 2.5; stroke-linecap: square"/>
   </g>
   <g id="line2d_111">
    <path d="M 673.631983 128.42 
L 673.631983 218.896923 
" clip-path="url(#p036b8e6158)" style="fill: none; stroke-dasharray: 2,3.3; stroke-dashoffset: 0; stroke: #d3d3d3; stroke-width: 2"/>
   </g>
   <g id="line2d_112">
    <path d="M 673.631983 218.896923 
L 674.594148 218.896923 
" clip-path="url(#p036b8e6158)" style="fill: none; stroke: #808080; stroke-width: 2.5; stroke-linecap: square"/>
   </g>
   <g id="line2d_113">
    <path d="M 674.594148 218.896923 
L 675.556314 218.896923 
" clip-path="url(#p036b8e6158)" style="fill: none; stroke: #808080; stroke-width: 2.5; stroke-linecap: square"/>
   </g>
   <g id="line2d_114">
    <path d="M 724.626752 128.42 
L 725.588917 128.42 
" clip-path="url(#p036b8e6158)" style="fill: none; stroke: #ffa500; stroke-width: 2.5; stroke-linecap: square"/>
   </g>
   <g id="line2d_115">
    <path d="M 725.588917 128.42 
L 726.551083 128.42 
" clip-path="url(#p036b8e6158)" style="fill: none; stroke: #ffa500; stroke-width: 2.5; stroke-linecap: square"/>
   </g>
   <g id="line2d_116">
    <path d="M 726.551083 128.42 
L 727.513248 128.42 
" clip-path="url(#p036b8e6158)" style="fill: none; stroke: #ffa500; stroke-width: 2.5; stroke-linecap: square"/>
   </g>
   <g id="line2d_117">
    <path d="M 727.513248 128.42 
L 728.475414 128.42 
" clip-path="url(#p036b8e6158)" style="fill: none; stroke: #ffa500; stroke-width: 2.5; stroke-linecap: square"/>
   </g>
   <g id="line2d_118">
    <path d="M 734.248406 128.42 
L 735.210572 128.42 
" clip-path="url(#p036b8e6158)" style="fill: none; stroke: #ffa500; stroke-width: 2.5; stroke-linecap: square"/>
   </g>
   <g id="line2d_119">
    <path d="M 740.021399 128.42 
L 740.983564 128.42 
" clip-path="url(#p036b8e6158)" style="fill: none; stroke: #ffa500; stroke-width: 2.5; stroke-linecap: square"/>
   </g>
   <g id="line2d_120">
    <path d="M 740.983564 128.42 
L 741.94573 128.42 
" clip-path="url(#p036b8e6158)" style="fill: none; stroke: #ffa500; stroke-width: 2.5; stroke-linecap: square"/>
   </g>
   <g id="line2d_121">
    <path d="M 741.94573 128.42 
L 742.907895 128.42 
" clip-path="url(#p036b8e6158)" style="fill: none; stroke: #ffa500; stroke-width: 2.5; stroke-linecap: square"/>
   </g>
   <g id="line2d_122">
    <path d="M 742.907895 128.42 
L 743.870061 128.42 
" clip-path="url(#p036b8e6158)" style="fill: none; stroke: #ffa500; stroke-width: 2.5; stroke-linecap: square"/>
   </g>
   <g id="line2d_123">
    <path d="M 743.870061 128.42 
L 744.832226 128.42 
" clip-path="url(#p036b8e6158)" style="fill: none; stroke: #ffa500; stroke-width: 2.5; stroke-linecap: square"/>
   </g>
   <g id="line2d_124">
    <path d="M 777.545852 37.943077 
L 778.508017 37.943077 
" clip-path="url(#p036b8e6158)" style="fill: none; stroke: #ff0000; stroke-width: 2.5; stroke-linecap: square"/>
   </g>
   <g id="line2d_125">
    <path d="M 778.508017 37.943077 
L 778.508017 128.42 
" clip-path="url(#p036b8e6158)" style="fill: none; stroke-dasharray: 2,3.3; stroke-dashoffset: 0; stroke: #d3d3d3; stroke-width: 2"/>
   </g>
   <g id="line2d_126">
    <path d="M 778.508017 128.42 
L 779.470182 128.42 
" clip-path="url(#p036b8e6158)" style="fill: none; stroke: #ffa500; stroke-width: 2.5; stroke-linecap: square"/>
   </g>
   <g id="line2d_127">
    <path d="M 779.470182 128.42 
L 780.432348 128.42 
" clip-path="url(#p036b8e6158)" style="fill: none; stroke: #ffa500; stroke-width: 2.5; stroke-linecap: square"/>
   </g>
   <g id="line2d_128">
    <path d="M 786.205341 128.42 
L 787.167506 128.42 
" clip-path="url(#p036b8e6158)" style="fill: none; stroke: #ffa500; stroke-width: 2.5; stroke-linecap: square"/>
   </g>
   <g id="line2d_129">
    <path d="M 789.091837 218.896923 
L 790.054002 218.896923 
" clip-path="url(#p036b8e6158)" style="fill: none; stroke: #808080; stroke-width: 2.5; stroke-linecap: square"/>
   </g>
   <g id="line2d_130">
    <path d="M 790.054002 218.896923 
L 791.016168 218.896923 
" clip-path="url(#p036b8e6158)" style="fill: none; stroke: #808080; stroke-width: 2.5; stroke-linecap: square"/>
   </g>
   <g id="line2d_131">
    <path d="M 791.016168 218.896923 
L 791.978333 218.896923 
" clip-path="url(#p036b8e6158)" style="fill: none; stroke: #808080; stroke-width: 2.5; stroke-linecap: square"/>
   </g>
   <g id="line2d_132">
    <path d="M 807.372981 218.896923 
L 808.335146 218.896923 
" clip-path="url(#p036b8e6158)" style="fill: none; stroke: #808080; stroke-width: 2.5; stroke-linecap: square"/>
   </g>
   <g id="line2d_133">
    <path d="M 819.881131 37.943077 
L 820.843297 37.943077 
" clip-path="url(#p036b8e6158)" style="fill: none; stroke: #ff0000; stroke-width: 2.5; stroke-linecap: square"/>
   </g>
   <g id="line2d_134">
    <path d="M 820.843297 37.943077 
L 821.805462 37.943077 
" clip-path="url(#p036b8e6158)" style="fill: none; stroke: #ff0000; stroke-width: 2.5; stroke-linecap: square"/>
   </g>
   <g id="line2d_135">
    <path d="M 821.805462 37.943077 
L 822.767628 37.943077 
" clip-path="url(#p036b8e6158)" style="fill: none; stroke: #ff0000; stroke-width: 2.5; stroke-linecap: square"/>
   </g>
   <g id="line2d_136">
    <path d="M 822.767628 37.943077 
L 823.729793 37.943077 
" clip-path="url(#p036b8e6158)" style="fill: none; stroke: #ff0000; stroke-width: 2.5; stroke-linecap: square"/>
   </g>
   <g id="line2d_137">
    <path d="M 823.729793 37.943077 
L 824.691959 37.943077 
" clip-path="url(#p036b8e6158)" style="fill: none; stroke: #ff0000; stroke-width: 2.5; stroke-linecap: square"/>
   </g>
   <g id="line2d_138">
    <path d="M 824.691959 37.943077 
L 824.691959 128.42 
" clip-path="url(#p036b8e6158)" style="fill: none; stroke-dasharray: 2,3.3; stroke-dashoffset: 0; stroke: #d3d3d3; stroke-width: 2"/>
   </g>
   <g id="line2d_139">
    <path d="M 824.691959 128.42 
L 825.654124 128.42 
" clip-path="url(#p036b8e6158)" style="fill: none; stroke: #ffa500; stroke-width: 2.5; stroke-linecap: square"/>
   </g>
   <g id="line2d_140">
    <path d="M 838.162275 218.896923 
L 839.12444 218.896923 
" clip-path="url(#p036b8e6158)" style="fill: none; stroke: #808080; stroke-width: 2.5; stroke-linecap: square"/>
   </g>
   <g id="line2d_141">
    <path d="M 845.859599 37.943077 
L 846.821764 37.943077 
" clip-path="url(#p036b8e6158)" style="fill: none; stroke: #ff0000; stroke-width: 2.5; stroke-linecap: square"/>
   </g>
   <g id="line2d_142">
    <path d="M 848.746095 37.943077 
L 849.70826 37.943077 
" clip-path="url(#p036b8e6158)" style="fill: none; stroke: #ff0000; stroke-width: 2.5; stroke-linecap: square"/>
   </g>
   <g id="line2d_143">
    <path d="M 853.556922 128.42 
L 854.519088 128.42 
" clip-path="url(#p036b8e6158)" style="fill: none; stroke: #ffa500; stroke-width: 2.5; stroke-linecap: square"/>
   </g>
   <g id="line2d_144">
    <path d="M 858.367749 128.42 
L 859.329915 128.42 
" clip-path="url(#p036b8e6158)" style="fill: none; stroke: #ffa500; stroke-width: 2.5; stroke-linecap: square"/>
   </g>
   <g id="line2d_145">
    <path d="M 859.329915 128.42 
L 860.29208 128.42 
" clip-path="url(#p036b8e6158)" style="fill: none; stroke: #ffa500; stroke-width: 2.5; stroke-linecap: square"/>
   </g>
   <g id="line2d_146">
    <path d="M 863.178577 128.42 
L 864.140742 128.42 
" clip-path="url(#p036b8e6158)" style="fill: none; stroke: #ffa500; stroke-width: 2.5; stroke-linecap: square"/>
   </g>
   <g id="line2d_147">
    <path d="M 866.065073 128.42 
L 867.027238 128.42 
" clip-path="url(#p036b8e6158)" style="fill: none; stroke: #ffa500; stroke-width: 2.5; stroke-linecap: square"/>
   </g>
   <g id="line2d_148">
    <path d="M 867.027238 128.42 
L 867.989404 128.42 
" clip-path="url(#p036b8e6158)" style="fill: none; stroke: #ffa500; stroke-width: 2.5; stroke-linecap: square"/>
   </g>
   <g id="line2d_149">
    <path d="M 869.913735 37.943077 
L 870.8759 37.943077 
" clip-path="url(#p036b8e6158)" style="fill: none; stroke: #ff0000; stroke-width: 2.5; stroke-linecap: square"/>
   </g>
   <g id="line2d_150">
    <path d="M 876.648893 37.943077 
L 877.611058 37.943077 
" clip-path="url(#p036b8e6158)" style="fill: none; stroke: #ff0000; stroke-width: 2.5; stroke-linecap: square"/>
   </g>
   <g id="line2d_151">
    <path d="M 880.497555 37.943077 
L 881.45972 37.943077 
" clip-path="url(#p036b8e6158)" style="fill: none; stroke: #ff0000; stroke-width: 2.5; stroke-linecap: square"/>
   </g>
   <g id="line2d_152">
    <path d="M 881.45972 37.943077 
L 882.421886 37.943077 
" clip-path="url(#p036b8e6158)" style="fill: none; stroke: #ff0000; stroke-width: 2.5; stroke-linecap: square"/>
   </g>
   <g id="line2d_153">
    <path d="M 882.421886 37.943077 
L 882.421886 128.42 
" clip-path="url(#p036b8e6158)" style="fill: none; stroke-dasharray: 2,3.3; stroke-dashoffset: 0; stroke: #d3d3d3; stroke-width: 2"/>
   </g>
   <g id="line2d_154">
    <path d="M 882.421886 128.42 
L 883.384051 128.42 
" clip-path="url(#p036b8e6158)" style="fill: none; stroke: #ffa500; stroke-width: 2.5; stroke-linecap: square"/>
   </g>
   <g id="line2d_155">
    <path d="M 883.384051 128.42 
L 884.346217 128.42 
" clip-path="url(#p036b8e6158)" style="fill: none; stroke: #ffa500; stroke-width: 2.5; stroke-linecap: square"/>
   </g>
   <g id="line2d_156">
    <path d="M 884.346217 128.42 
L 884.346217 218.896923 
" clip-path="url(#p036b8e6158)" style="fill: none; stroke-dasharray: 2,3.3; stroke-dashoffset: 0; stroke: #d3d3d3; stroke-width: 2"/>
   </g>
   <g id="line2d_157">
    <path d="M 884.346217 218.896923 
L 885.308382 218.896923 
" clip-path="url(#p036b8e6158)" style="fill: none; stroke: #808080; stroke-width: 2.5; stroke-linecap: square"/>
   </g>
   <g id="line2d_158">
    <path d="M 892.04354 218.896923 
L 893.005706 218.896923 
" clip-path="url(#p036b8e6158)" style="fill: none; stroke: #808080; stroke-width: 2.5; stroke-linecap: square"/>
   </g>
   <g id="line2d_159">
    <path d="M 893.005706 218.896923 
L 893.005706 128.42 
" clip-path="url(#p036b8e6158)" style="fill: none; stroke-dasharray: 2,3.3; stroke-dashoffset: 0; stroke: #d3d3d3; stroke-width: 2"/>
   </g>
   <g id="line2d_160">
    <path d="M 893.005706 128.42 
L 893.967871 128.42 
" clip-path="url(#p036b8e6158)" style="fill: none; stroke: #ffa500; stroke-width: 2.5; stroke-linecap: square"/>
   </g>
   <g id="patch_3">
    <path d="M 93.35 246.04 
L 93.35 10.8 
" style="fill: none; stroke: #000000; stroke-width: 0.8; stroke-linejoin: miter; stroke-linecap: square"/>
   </g>
   <g id="patch_4">
    <path d="M 963.34 246.04 
L 963.34 10.8 
" style="fill: none; stroke: #000000; stroke-width: 0.8; stroke-linejoin: miter; stroke-linecap: square"/>
   </g>
   <g id="patch_5">
    <path d="M 93.35 246.04 
L 963.34 246.04 
" style="fill: none; stroke: #000000; stroke-width: 0.8; stroke-linejoin: miter; stroke-linecap: square"/>
   </g>
   <g id="patch_6">
    <path d="M 93.35 10.8 
L 963.34 10.8 
" style="fill: none; stroke: #000000; stroke-width: 0.8; stroke-linejoin: miter; stroke-linecap: square"/>
   </g>
  </g>
  <g id="axes_2">
   <g id="matplotlib.axis_3">
    <g id="ytick_4">
     <g id="line2d_161">
      <defs>
       <path id="m63eb8be189" d="M 0 0 
L 3.5 0 
" style="stroke: #000000; stroke-width: 0.8"/>
      </defs>
      <g>
       <use xlink:href="#m63eb8be189" x="963.34" y="233.851786" style="stroke: #000000; stroke-width: 0.8"/>
      </g>
     </g>
     <g id="text_16">
      <!-- 14 -->
      <g transform="translate(970.34 237.651005) scale(0.1 -0.1)">
       <use xlink:href="#DejaVuSans-31"/>
       <use xlink:href="#DejaVuSans-34" x="63.623047"/>
      </g>
     </g>
    </g>
    <g id="ytick_5">
     <g id="line2d_162">
      <g>
       <use xlink:href="#m63eb8be189" x="963.34" y="203.94206" style="stroke: #000000; stroke-width: 0.8"/>
      </g>
     </g>
     <g id="text_17">
      <!-- 16 -->
      <g transform="translate(970.34 207.741279) scale(0.1 -0.1)">
       <defs>
        <path id="DejaVuSans-36" d="M 2113 2584 
Q 1688 2584 1439 2293 
Q 1191 2003 1191 1497 
Q 1191 994 1439 701 
Q 1688 409 2113 409 
Q 2538 409 2786 701 
Q 3034 994 3034 1497 
Q 3034 2003 2786 2293 
Q 2538 2584 2113 2584 
z
M 3366 4563 
L 3366 3988 
Q 3128 4100 2886 4159 
Q 2644 4219 2406 4219 
Q 1781 4219 1451 3797 
Q 1122 3375 1075 2522 
Q 1259 2794 1537 2939 
Q 1816 3084 2150 3084 
Q 2853 3084 3261 2657 
Q 3669 2231 3669 1497 
Q 3669 778 3244 343 
Q 2819 -91 2113 -91 
Q 1303 -91 875 529 
Q 447 1150 447 2328 
Q 447 3434 972 4092 
Q 1497 4750 2381 4750 
Q 2619 4750 2861 4703 
Q 3103 4656 3366 4563 
z
" transform="scale(0.015625)"/>
       </defs>
       <use xlink:href="#DejaVuSans-31"/>
       <use xlink:href="#DejaVuSans-36" x="63.623047"/>
      </g>
     </g>
    </g>
    <g id="ytick_6">
     <g id="line2d_163">
      <g>
       <use xlink:href="#m63eb8be189" x="963.34" y="174.032333" style="stroke: #000000; stroke-width: 0.8"/>
      </g>
     </g>
     <g id="text_18">
      <!-- 18 -->
      <g transform="translate(970.34 177.831552) scale(0.1 -0.1)">
       <defs>
        <path id="DejaVuSans-38" d="M 2034 2216 
Q 1584 2216 1326 1975 
Q 1069 1734 1069 1313 
Q 1069 891 1326 650 
Q 1584 409 2034 409 
Q 2484 409 2743 651 
Q 3003 894 3003 1313 
Q 3003 1734 2745 1975 
Q 2488 2216 2034 2216 
z
M 1403 2484 
Q 997 2584 770 2862 
Q 544 3141 544 3541 
Q 544 4100 942 4425 
Q 1341 4750 2034 4750 
Q 2731 4750 3128 4425 
Q 3525 4100 3525 3541 
Q 3525 3141 3298 2862 
Q 3072 2584 2669 2484 
Q 3125 2378 3379 2068 
Q 3634 1759 3634 1313 
Q 3634 634 3220 271 
Q 2806 -91 2034 -91 
Q 1263 -91 848 271 
Q 434 634 434 1313 
Q 434 1759 690 2068 
Q 947 2378 1403 2484 
z
M 1172 3481 
Q 1172 3119 1398 2916 
Q 1625 2713 2034 2713 
Q 2441 2713 2670 2916 
Q 2900 3119 2900 3481 
Q 2900 3844 2670 4047 
Q 2441 4250 2034 4250 
Q 1625 4250 1398 4047 
Q 1172 3844 1172 3481 
z
" transform="scale(0.015625)"/>
       </defs>
       <use xlink:href="#DejaVuSans-31"/>
       <use xlink:href="#DejaVuSans-38" x="63.623047"/>
      </g>
     </g>
    </g>
    <g id="ytick_7">
     <g id="line2d_164">
      <g>
       <use xlink:href="#m63eb8be189" x="963.34" y="144.122606" style="stroke: #000000; stroke-width: 0.8"/>
      </g>
     </g>
     <g id="text_19">
      <!-- 20 -->
      <g transform="translate(970.34 147.921825) scale(0.1 -0.1)">
       <use xlink:href="#DejaVuSans-32"/>
       <use xlink:href="#DejaVuSans-30" x="63.623047"/>
      </g>
     </g>
    </g>
    <g id="ytick_8">
     <g id="line2d_165">
      <g>
       <use xlink:href="#m63eb8be189" x="963.34" y="114.21288" style="stroke: #000000; stroke-width: 0.8"/>
      </g>
     </g>
     <g id="text_20">
      <!-- 22 -->
      <g transform="translate(970.34 118.012099) scale(0.1 -0.1)">
       <use xlink:href="#DejaVuSans-32"/>
       <use xlink:href="#DejaVuSans-32" x="63.623047"/>
      </g>
     </g>
    </g>
    <g id="ytick_9">
     <g id="line2d_166">
      <g>
       <use xlink:href="#m63eb8be189" x="963.34" y="84.303153" style="stroke: #000000; stroke-width: 0.8"/>
      </g>
     </g>
     <g id="text_21">
      <!-- 24 -->
      <g transform="translate(970.34 88.102372) scale(0.1 -0.1)">
       <use xlink:href="#DejaVuSans-32"/>
       <use xlink:href="#DejaVuSans-34" x="63.623047"/>
      </g>
     </g>
    </g>
    <g id="ytick_10">
     <g id="line2d_167">
      <g>
       <use xlink:href="#m63eb8be189" x="963.34" y="54.393427" style="stroke: #000000; stroke-width: 0.8"/>
      </g>
     </g>
     <g id="text_22">
      <!-- 26 -->
      <g transform="translate(970.34 58.192645) scale(0.1 -0.1)">
       <use xlink:href="#DejaVuSans-32"/>
       <use xlink:href="#DejaVuSans-36" x="63.623047"/>
      </g>
     </g>
    </g>
    <g id="ytick_11">
     <g id="line2d_168">
      <g>
       <use xlink:href="#m63eb8be189" x="963.34" y="24.4837" style="stroke: #000000; stroke-width: 0.8"/>
      </g>
     </g>
     <g id="text_23">
      <!-- 28 -->
      <g transform="translate(970.34 28.282919) scale(0.1 -0.1)">
       <use xlink:href="#DejaVuSans-32"/>
       <use xlink:href="#DejaVuSans-38" x="63.623047"/>
      </g>
     </g>
    </g>
    <g id="text_24">
     <!-- Sea surface temperature (C) -->
     <g transform="translate(994.663438 202.299688) rotate(-90) scale(0.1 -0.1)">
      <defs>
       <path id="DejaVuSans-53" d="M 3425 4513 
L 3425 3897 
Q 3066 4069 2747 4153 
Q 2428 4238 2131 4238 
Q 1616 4238 1336 4038 
Q 1056 3838 1056 3469 
Q 1056 3159 1242 3001 
Q 1428 2844 1947 2747 
L 2328 2669 
Q 3034 2534 3370 2195 
Q 3706 1856 3706 1288 
Q 3706 609 3251 259 
Q 2797 -91 1919 -91 
Q 1588 -91 1214 -16 
Q 841 59 441 206 
L 441 856 
Q 825 641 1194 531 
Q 1563 422 1919 422 
Q 2459 422 2753 634 
Q 3047 847 3047 1241 
Q 3047 1584 2836 1778 
Q 2625 1972 2144 2069 
L 1759 2144 
Q 1053 2284 737 2584 
Q 422 2884 422 3419 
Q 422 4038 858 4394 
Q 1294 4750 2059 4750 
Q 2388 4750 2728 4690 
Q 3069 4631 3425 4513 
z
" transform="scale(0.015625)"/>
       <path id="DejaVuSans-75" d="M 544 1381 
L 544 3500 
L 1119 3500 
L 1119 1403 
Q 1119 906 1312 657 
Q 1506 409 1894 409 
Q 2359 409 2629 706 
Q 2900 1003 2900 1516 
L 2900 3500 
L 3475 3500 
L 3475 0 
L 2900 0 
L 2900 538 
Q 2691 219 2414 64 
Q 2138 -91 1772 -91 
Q 1169 -91 856 284 
Q 544 659 544 1381 
z
M 1991 3584 
L 1991 3584 
z
" transform="scale(0.015625)"/>
       <path id="DejaVuSans-66" d="M 2375 4863 
L 2375 4384 
L 1825 4384 
Q 1516 4384 1395 4259 
Q 1275 4134 1275 3809 
L 1275 3500 
L 2222 3500 
L 2222 3053 
L 1275 3053 
L 1275 0 
L 697 0 
L 697 3053 
L 147 3053 
L 147 3500 
L 697 3500 
L 697 3744 
Q 697 4328 969 4595 
Q 1241 4863 1831 4863 
L 2375 4863 
z
" transform="scale(0.015625)"/>
       <path id="DejaVuSans-63" d="M 3122 3366 
L 3122 2828 
Q 2878 2963 2633 3030 
Q 2388 3097 2138 3097 
Q 1578 3097 1268 2742 
Q 959 2388 959 1747 
Q 959 1106 1268 751 
Q 1578 397 2138 397 
Q 2388 397 2633 464 
Q 2878 531 3122 666 
L 3122 134 
Q 2881 22 2623 -34 
Q 2366 -91 2075 -91 
Q 1284 -91 818 406 
Q 353 903 353 1747 
Q 353 2603 823 3093 
Q 1294 3584 2113 3584 
Q 2378 3584 2631 3529 
Q 2884 3475 3122 3366 
z
" transform="scale(0.015625)"/>
       <path id="DejaVuSans-6d" d="M 3328 2828 
Q 3544 3216 3844 3400 
Q 4144 3584 4550 3584 
Q 5097 3584 5394 3201 
Q 5691 2819 5691 2113 
L 5691 0 
L 5113 0 
L 5113 2094 
Q 5113 2597 4934 2840 
Q 4756 3084 4391 3084 
Q 3944 3084 3684 2787 
Q 3425 2491 3425 1978 
L 3425 0 
L 2847 0 
L 2847 2094 
Q 2847 2600 2669 2842 
Q 2491 3084 2119 3084 
Q 1678 3084 1418 2786 
Q 1159 2488 1159 1978 
L 1159 0 
L 581 0 
L 581 3500 
L 1159 3500 
L 1159 2956 
Q 1356 3278 1631 3431 
Q 1906 3584 2284 3584 
Q 2666 3584 2933 3390 
Q 3200 3197 3328 2828 
z
" transform="scale(0.015625)"/>
       <path id="DejaVuSans-b0" d="M 1600 4347 
Q 1350 4347 1178 4173 
Q 1006 4000 1006 3750 
Q 1006 3503 1178 3333 
Q 1350 3163 1600 3163 
Q 1850 3163 2022 3333 
Q 2194 3503 2194 3750 
Q 2194 3997 2020 4172 
Q 1847 4347 1600 4347 
z
M 1600 4750 
Q 1800 4750 1984 4673 
Q 2169 4597 2303 4453 
Q 2447 4313 2519 4134 
Q 2591 3956 2591 3750 
Q 2591 3338 2302 3052 
Q 2013 2766 1594 2766 
Q 1172 2766 890 3047 
Q 609 3328 609 3750 
Q 609 4169 896 4459 
Q 1184 4750 1600 4750 
z
" transform="scale(0.015625)"/>
       <path id="DejaVuSans-43" d="M 4122 4306 
L 4122 3641 
Q 3803 3938 3442 4084 
Q 3081 4231 2675 4231 
Q 1875 4231 1450 3742 
Q 1025 3253 1025 2328 
Q 1025 1406 1450 917 
Q 1875 428 2675 428 
Q 3081 428 3442 575 
Q 3803 722 4122 1019 
L 4122 359 
Q 3791 134 3420 21 
Q 3050 -91 2638 -91 
Q 1578 -91 968 557 
Q 359 1206 359 2328 
Q 359 3453 968 4101 
Q 1578 4750 2638 4750 
Q 3056 4750 3426 4639 
Q 3797 4528 4122 4306 
z
" transform="scale(0.015625)"/>
      </defs>
      <use xlink:href="#DejaVuSans-53"/>
      <use xlink:href="#DejaVuSans-65" x="63.476562"/>
      <use xlink:href="#DejaVuSans-61" x="125"/>
      <use xlink:href="#DejaVuSans-20" x="186.279297"/>
      <use xlink:href="#DejaVuSans-73" x="218.066406"/>
      <use xlink:href="#DejaVuSans-75" x="270.166016"/>
      <use xlink:href="#DejaVuSans-72" x="333.544922"/>
      <use xlink:href="#DejaVuSans-66" x="374.658203"/>
      <use xlink:href="#DejaVuSans-61" x="409.863281"/>
      <use xlink:href="#DejaVuSans-63" x="471.142578"/>
      <use xlink:href="#DejaVuSans-65" x="526.123047"/>
      <use xlink:href="#DejaVuSans-20" x="587.646484"/>
      <use xlink:href="#DejaVuSans-74" x="619.433594"/>
      <use xlink:href="#DejaVuSans-65" x="658.642578"/>
      <use xlink:href="#DejaVuSans-6d" x="720.166016"/>
      <use xlink:href="#DejaVuSans-70" x="817.578125"/>
      <use xlink:href="#DejaVuSans-65" x="881.054688"/>
      <use xlink:href="#DejaVuSans-72" x="942.578125"/>
      <use xlink:href="#DejaVuSans-61" x="983.691406"/>
      <use xlink:href="#DejaVuSans-74" x="1044.970703"/>
      <use xlink:href="#DejaVuSans-75" x="1084.179688"/>
      <use xlink:href="#DejaVuSans-72" x="1147.558594"/>
      <use xlink:href="#DejaVuSans-65" x="1186.421875"/>
      <use xlink:href="#DejaVuSans-20" x="1247.945312"/>
      <use xlink:href="#DejaVuSans-28" x="1279.732422"/>
      <use xlink:href="#DejaVuSans-b0" x="1318.746094"/>
      <use xlink:href="#DejaVuSans-43" x="1368.746094"/>
      <use xlink:href="#DejaVuSans-29" x="1438.570312"/>
     </g>
    </g>
   </g>
   <g id="line2d_169">
    <path d="M 132.895 55.888913 
L 133.857165 48.411481 
L 134.819331 33.456618 
L 135.781496 49.906968 
L 136.743662 40.93405 
L 137.705827 60.375372 
L 138.667993 72.339263 
L 139.630158 60.375372 
L 140.592324 33.456618 
L 141.554489 33.456618 
L 142.516655 39.438563 
L 143.47882 34.952104 
L 144.440985 45.420509 
L 145.403151 58.879886 
L 146.365316 39.438563 
L 147.327482 36.447591 
L 148.289647 42.429536 
L 149.251813 63.366345 
L 150.213978 46.915995 
L 151.176144 45.420509 
L 152.138309 30.465645 
L 153.100474 40.93405 
L 154.06264 40.93405 
L 155.024805 42.429536 
L 155.986971 45.420509 
L 156.949136 39.438563 
L 158.873467 48.411481 
L 159.835633 49.906968 
L 160.797798 45.420509 
L 161.759964 43.925022 
L 162.722129 45.420509 
L 163.684294 48.411481 
L 164.64646 46.915995 
L 165.608625 57.384399 
L 166.570791 51.402454 
L 167.532956 57.384399 
L 168.495122 66.357317 
L 169.457287 58.879886 
L 170.419453 49.906968 
L 171.381618 42.429536 
L 172.343783 48.411481 
L 173.305949 45.420509 
L 174.268114 51.402454 
L 175.23028 49.906968 
L 176.192445 42.429536 
L 177.154611 42.429536 
L 178.116776 52.89794 
L 179.078942 58.879886 
L 180.041107 51.402454 
L 181.003273 55.888913 
L 181.965438 55.888913 
L 182.927603 54.393427 
L 183.889769 61.870858 
L 184.851934 70.843776 
L 185.8141 61.870858 
L 186.776265 54.393427 
L 187.738431 51.402454 
L 188.700596 42.429536 
L 189.662762 54.393427 
L 190.624927 46.915995 
L 191.587092 49.906968 
L 192.549258 54.393427 
L 193.511423 55.888913 
L 194.473589 55.888913 
L 195.435754 54.393427 
L 196.39792 57.384399 
L 197.360085 57.384399 
L 199.284416 75.330235 
L 200.246582 79.816694 
L 201.208747 87.294126 
L 202.170912 87.294126 
L 203.133078 94.771558 
L 204.095243 84.303153 
L 205.057409 82.807667 
L 206.019574 85.79864 
L 206.98174 84.303153 
L 207.943905 84.303153 
L 208.906071 81.312181 
L 209.868236 79.816694 
L 210.830401 94.771558 
L 211.792567 99.258017 
L 212.754732 96.267044 
L 213.716898 90.285099 
L 215.641229 90.285099 
L 216.603394 81.312181 
L 217.56556 82.807667 
L 218.527725 82.807667 
L 219.489891 90.285099 
L 220.452056 94.771558 
L 222.376387 85.79864 
L 223.338552 82.807667 
L 224.300718 88.789612 
L 225.262883 84.303153 
L 226.225049 93.276071 
L 227.187214 93.276071 
L 228.14938 112.717394 
L 229.111545 106.735448 
L 230.07371 102.248989 
L 231.035876 105.239962 
L 231.998041 118.699339 
L 232.960207 114.21288 
L 233.922372 115.708366 
L 234.884538 114.21288 
L 235.846703 115.708366 
L 236.808869 108.230935 
L 237.771034 121.690312 
L 238.7332 129.167743 
L 239.695365 141.131634 
L 240.65753 139.636147 
L 241.619696 139.636147 
L 242.581861 127.672257 
L 243.544027 138.140661 
L 244.506192 142.62712 
L 245.468358 135.149688 
L 246.430523 145.618093 
L 247.392689 145.618093 
L 248.354854 165.059415 
L 249.317019 163.563929 
L 250.279185 160.572956 
L 251.24135 166.554901 
L 252.203516 165.059415 
L 253.165681 169.545874 
L 254.127847 165.059415 
L 255.090012 169.545874 
L 256.052178 165.059415 
L 257.014343 162.068442 
L 257.976509 165.059415 
L 258.938674 160.572956 
L 259.900839 148.609065 
L 260.863005 151.600038 
L 261.82517 168.050388 
L 262.787336 160.572956 
L 263.749501 157.581983 
L 264.711667 153.095524 
L 265.673832 172.536847 
L 266.635998 175.527819 
L 267.598163 181.509765 
L 268.560328 175.527819 
L 269.522494 183.005251 
L 270.484659 200.951087 
L 271.446825 181.509765 
L 272.40899 169.545874 
L 273.371156 183.005251 
L 274.333321 171.04136 
L 275.295487 178.518792 
L 276.257652 178.518792 
L 277.219818 172.536847 
L 278.181983 160.572956 
L 279.144148 156.086497 
L 280.106314 163.563929 
L 281.068479 166.554901 
L 282.030645 160.572956 
L 282.99281 156.086497 
L 283.954976 160.572956 
L 284.917141 160.572956 
L 285.879307 169.545874 
L 286.841472 187.49171 
L 287.803637 183.005251 
L 288.765803 185.996224 
L 289.727968 200.951087 
L 290.690134 175.527819 
L 291.652299 174.032333 
L 292.614465 178.518792 
L 293.57663 168.050388 
L 294.538796 175.527819 
L 295.500961 175.527819 
L 296.463127 165.059415 
L 297.425292 174.032333 
L 298.387457 168.050388 
L 300.311788 171.04136 
L 301.273954 166.554901 
L 302.236119 187.49171 
L 303.198285 196.464628 
L 304.16045 193.473655 
L 305.122616 199.455601 
L 306.084781 199.455601 
L 307.046946 202.446573 
L 308.009112 194.969142 
L 308.971277 183.005251 
L 309.933443 178.518792 
L 310.895608 190.482683 
L 311.857774 193.473655 
L 312.819939 178.518792 
L 313.782105 187.49171 
L 314.74427 197.960114 
L 315.706436 196.464628 
L 316.668601 190.482683 
L 317.630766 202.446573 
L 318.592932 193.473655 
L 319.555097 196.464628 
L 320.517263 197.960114 
L 321.479428 194.969142 
L 322.441594 203.94206 
L 323.403759 196.464628 
L 324.365925 197.960114 
L 325.32809 205.437546 
L 326.290255 196.464628 
L 327.252421 191.978169 
L 328.214586 190.482683 
L 329.176752 194.969142 
L 330.138917 197.960114 
L 331.101083 194.969142 
L 332.063248 212.914978 
L 333.025414 184.500737 
L 333.987579 168.050388 
L 334.949745 177.023306 
L 335.91191 162.068442 
L 336.874075 166.554901 
L 337.836241 159.07747 
L 338.798406 187.49171 
L 339.760572 174.032333 
L 340.722737 187.49171 
L 341.684903 188.987196 
L 342.647068 196.464628 
L 343.609234 202.446573 
L 344.571399 196.464628 
L 345.533564 200.951087 
L 347.457895 191.978169 
L 348.420061 190.482683 
L 349.382226 191.978169 
L 350.344392 200.951087 
L 351.306557 200.951087 
L 352.268723 205.437546 
L 353.230888 197.960114 
L 354.193054 211.419491 
L 355.155219 214.410464 
L 356.117384 209.924005 
L 357.07955 214.410464 
L 358.041715 208.428519 
L 359.003881 205.437546 
L 359.966046 209.924005 
L 360.928212 212.914978 
L 361.890377 203.94206 
L 362.852543 199.455601 
L 363.814708 196.464628 
L 364.776873 188.987196 
L 365.739039 197.960114 
L 366.701204 196.464628 
L 367.66337 196.464628 
L 368.625535 193.473655 
L 369.587701 184.500737 
L 370.549866 183.005251 
L 371.512032 180.014278 
L 372.474197 185.996224 
L 373.436363 178.518792 
L 374.398528 180.014278 
L 375.360693 177.023306 
L 376.322859 194.969142 
L 377.285024 188.987196 
L 378.24719 185.996224 
L 379.209355 184.500737 
L 380.171521 175.527819 
L 381.133686 172.536847 
L 382.095852 166.554901 
L 383.058017 166.554901 
L 384.020182 150.104552 
L 384.982348 165.059415 
L 385.944513 165.059415 
L 386.906679 154.591011 
L 387.868844 169.545874 
L 388.83101 171.04136 
L 389.793175 153.095524 
L 390.755341 148.609065 
L 391.717506 142.62712 
L 392.679672 141.131634 
L 393.641837 150.104552 
L 394.604002 148.609065 
L 395.566168 151.600038 
L 397.490499 166.554901 
L 398.452664 159.07747 
L 399.41483 162.068442 
L 400.376995 156.086497 
L 402.301326 156.086497 
L 403.263491 165.059415 
L 404.225657 177.023306 
L 405.187822 169.545874 
L 406.149988 159.07747 
L 407.112153 150.104552 
L 408.074319 150.104552 
L 409.036484 172.536847 
L 409.99865 150.104552 
L 410.960815 150.104552 
L 411.922981 154.591011 
L 412.885146 153.095524 
L 413.847311 142.62712 
L 414.809477 159.07747 
L 416.733808 147.113579 
L 419.620304 151.600038 
L 420.58247 150.104552 
L 421.544635 156.086497 
L 422.5068 165.059415 
L 423.468966 162.068442 
L 424.431131 139.636147 
L 425.393297 148.609065 
L 426.355462 147.113579 
L 427.317628 136.645175 
L 428.279793 139.636147 
L 429.241959 139.636147 
L 430.204124 138.140661 
L 431.16629 127.672257 
L 433.09062 124.681284 
L 434.052786 126.176771 
L 435.014951 120.194825 
L 435.977117 108.230935 
L 436.939282 114.21288 
L 437.901448 109.726421 
L 438.863613 112.717394 
L 439.825779 103.744476 
L 440.787944 106.735448 
L 441.750109 114.21288 
L 442.712275 126.176771 
L 443.67444 132.158716 
L 444.636606 115.708366 
L 445.598771 112.717394 
L 446.560937 123.185798 
L 447.523102 105.239962 
L 448.485268 118.699339 
L 449.447433 126.176771 
L 450.409599 120.194825 
L 451.371764 121.690312 
L 452.333929 105.239962 
L 453.296095 135.149688 
L 454.25826 109.726421 
L 455.220426 108.230935 
L 456.182591 103.744476 
L 457.144757 105.239962 
L 458.106922 94.771558 
L 459.069088 102.248989 
L 460.031253 108.230935 
L 460.993418 99.258017 
L 461.955584 100.753503 
L 462.917749 112.717394 
L 463.879915 105.239962 
L 464.84208 109.726421 
L 465.804246 112.717394 
L 466.766411 109.726421 
L 467.728577 96.267044 
L 468.690742 94.771558 
L 469.652908 103.744476 
L 470.615073 90.285099 
L 471.577238 82.807667 
L 472.539404 79.816694 
L 473.501569 79.816694 
L 474.463735 90.285099 
L 475.4259 90.285099 
L 476.388066 105.239962 
L 477.350231 102.248989 
L 478.312397 102.248989 
L 479.274562 106.735448 
L 480.236727 87.294126 
L 481.198893 75.330235 
L 482.161058 55.888913 
L 483.123224 51.402454 
L 484.085389 54.393427 
L 485.047555 60.375372 
L 486.00972 51.402454 
L 486.971886 39.438563 
L 487.934051 39.438563 
L 488.896217 30.465645 
L 489.858382 34.952104 
L 490.820547 54.393427 
L 491.782713 45.420509 
L 492.744878 48.411481 
L 493.707044 49.906968 
L 494.669209 48.411481 
L 495.631375 60.375372 
L 496.59354 48.411481 
L 497.555706 42.429536 
L 499.480036 36.447591 
L 500.442202 30.465645 
L 501.404367 21.492727 
L 502.366533 22.988214 
L 503.328698 34.952104 
L 504.290864 42.429536 
L 505.253029 30.465645 
L 506.215195 45.420509 
L 507.17736 52.89794 
L 508.139526 39.438563 
L 509.101691 42.429536 
L 510.063856 37.943077 
L 511.026022 31.961132 
L 512.950353 43.925022 
L 513.912518 48.411481 
L 514.874684 58.879886 
L 515.836849 67.852804 
L 516.799015 58.879886 
L 517.76118 48.411481 
L 518.723345 43.925022 
L 519.685511 42.429536 
L 520.647676 42.429536 
L 521.609842 45.420509 
L 522.572007 30.465645 
L 523.534173 40.93405 
L 524.496338 30.465645 
L 525.458504 28.970159 
L 526.420669 49.906968 
L 527.382835 49.906968 
L 528.345 39.438563 
L 529.307165 40.93405 
L 530.269331 34.952104 
L 531.231496 31.961132 
L 532.193662 46.915995 
L 533.155827 37.943077 
L 534.117993 66.357317 
L 535.080158 60.375372 
L 536.042324 85.79864 
L 537.004489 90.285099 
L 537.966655 93.276071 
L 538.92882 90.285099 
L 539.890985 67.852804 
L 540.853151 73.834749 
L 541.815316 76.825722 
L 542.777482 60.375372 
L 543.739647 73.834749 
L 544.701813 52.89794 
L 545.663978 55.888913 
L 546.626144 49.906968 
L 548.550474 55.888913 
L 549.51264 55.888913 
L 550.474805 54.393427 
L 551.436971 76.825722 
L 552.399136 84.303153 
L 553.361302 84.303153 
L 554.323467 72.339263 
L 555.285633 66.357317 
L 556.247798 66.357317 
L 557.209964 63.366345 
L 558.172129 57.384399 
L 559.134294 58.879886 
L 560.09646 57.384399 
L 561.058625 57.384399 
L 562.020791 64.861831 
L 562.982956 90.285099 
L 563.945122 79.816694 
L 565.869453 64.861831 
L 566.831618 76.825722 
L 567.793783 76.825722 
L 568.755949 72.339263 
L 569.718114 73.834749 
L 570.68028 76.825722 
L 571.642445 88.789612 
L 572.604611 73.834749 
L 573.566776 69.34829 
L 574.528942 73.834749 
L 575.491107 88.789612 
L 576.453273 81.312181 
L 577.415438 79.816694 
L 578.377603 87.294126 
L 579.339769 85.79864 
L 580.301934 97.76253 
L 581.2641 90.285099 
L 582.226265 97.76253 
L 583.188431 96.267044 
L 585.112762 81.312181 
L 586.074927 82.807667 
L 587.037092 88.789612 
L 587.999258 84.303153 
L 588.961423 85.79864 
L 589.923589 94.771558 
L 590.885754 96.267044 
L 591.84792 112.717394 
L 592.810085 115.708366 
L 593.772251 99.258017 
L 594.734416 105.239962 
L 595.696582 114.21288 
L 596.658747 114.21288 
L 597.620912 109.726421 
L 598.583078 108.230935 
L 600.507409 117.203853 
L 601.469574 142.62712 
L 602.43174 136.645175 
L 603.393905 120.194825 
L 604.356071 126.176771 
L 605.318236 121.690312 
L 606.280401 129.167743 
L 607.242567 133.654202 
L 608.204732 142.62712 
L 609.166898 144.122606 
L 610.129063 159.07747 
L 611.091229 150.104552 
L 612.053394 135.149688 
L 613.01556 138.140661 
L 613.977725 136.645175 
L 614.939891 157.581983 
L 615.902056 151.600038 
L 616.864221 147.113579 
L 617.826387 147.113579 
L 618.788552 160.572956 
L 619.750718 156.086497 
L 620.712883 166.554901 
L 621.675049 154.591011 
L 622.637214 156.086497 
L 623.59938 168.050388 
L 624.561545 174.032333 
L 625.52371 166.554901 
L 626.485876 163.563929 
L 627.448041 168.050388 
L 628.410207 180.014278 
L 629.372372 178.518792 
L 630.334538 174.032333 
L 632.258869 168.050388 
L 633.221034 157.581983 
L 634.1832 162.068442 
L 635.145365 160.572956 
L 637.069696 172.536847 
L 638.031861 168.050388 
L 639.956192 196.464628 
L 640.918358 199.455601 
L 641.880523 183.005251 
L 642.842689 183.005251 
L 643.804854 175.527819 
L 644.767019 180.014278 
L 645.729185 188.987196 
L 646.69135 203.94206 
L 647.653516 203.94206 
L 648.615681 187.49171 
L 650.540012 187.49171 
L 651.502178 188.987196 
L 652.464343 197.960114 
L 653.426509 188.987196 
L 654.388674 191.978169 
L 655.350839 184.500737 
L 656.313005 196.464628 
L 657.27517 200.951087 
L 658.237336 191.978169 
L 659.199501 194.969142 
L 660.161667 200.951087 
L 661.123832 209.924005 
L 662.085998 202.446573 
L 663.048163 197.960114 
L 664.010328 215.90595 
L 664.972494 197.960114 
L 666.896825 203.94206 
L 667.85899 205.437546 
L 668.821156 211.419491 
L 669.783321 199.455601 
L 670.745487 197.960114 
L 672.669818 200.951087 
L 673.631983 191.978169 
L 674.594148 197.960114 
L 675.556314 191.978169 
L 676.518479 187.49171 
L 678.44281 208.428519 
L 679.404976 200.951087 
L 680.367141 208.428519 
L 681.329307 208.428519 
L 682.291472 212.914978 
L 683.253637 218.896923 
L 684.215803 212.914978 
L 685.177968 212.914978 
L 686.140134 217.401437 
L 687.102299 220.392409 
L 688.064465 196.464628 
L 689.02663 199.455601 
L 689.988796 194.969142 
L 690.950961 205.437546 
L 691.913127 221.887896 
L 692.875292 235.347273 
L 693.837457 212.914978 
L 694.799623 223.383382 
L 695.761788 227.869841 
L 696.723954 224.878868 
L 697.686119 226.374355 
L 698.648285 206.933032 
L 699.61045 202.446573 
L 700.572616 200.951087 
L 701.534781 202.446573 
L 703.459112 208.428519 
L 704.421277 206.933032 
L 705.383443 194.969142 
L 706.345608 188.987196 
L 707.307774 193.473655 
L 708.269939 200.951087 
L 709.232105 197.960114 
L 710.19427 202.446573 
L 711.156436 205.437546 
L 712.118601 196.464628 
L 713.080766 188.987196 
L 714.042932 197.960114 
L 715.005097 191.978169 
L 716.929428 203.94206 
L 717.891594 203.94206 
L 718.853759 212.914978 
L 719.815925 215.90595 
L 721.740255 203.94206 
L 723.664586 185.996224 
L 724.626752 188.987196 
L 725.588917 181.509765 
L 726.551083 188.987196 
L 727.513248 180.014278 
L 728.475414 177.023306 
L 729.437579 180.014278 
L 730.399745 174.032333 
L 731.36191 175.527819 
L 732.324075 187.49171 
L 733.286241 194.969142 
L 734.248406 200.951087 
L 735.210572 199.455601 
L 736.172737 194.969142 
L 737.134903 187.49171 
L 738.097068 188.987196 
L 739.059234 183.005251 
L 740.021399 181.509765 
L 740.983564 183.005251 
L 741.94573 181.509765 
L 742.907895 181.509765 
L 744.832226 184.500737 
L 745.794392 184.500737 
L 746.756557 188.987196 
L 747.718723 187.49171 
L 749.643054 187.49171 
L 750.605219 183.005251 
L 751.567384 188.987196 
L 752.52955 185.996224 
L 753.491715 193.473655 
L 754.453881 188.987196 
L 755.416046 177.023306 
L 756.378212 166.554901 
L 757.340377 171.04136 
L 758.302543 181.509765 
L 759.264708 183.005251 
L 760.226873 168.050388 
L 761.189039 159.07747 
L 762.151204 162.068442 
L 763.11337 160.572956 
L 764.075535 169.545874 
L 765.037701 175.527819 
L 765.999866 162.068442 
L 766.962032 169.545874 
L 768.886363 166.554901 
L 769.848528 151.600038 
L 770.810693 141.131634 
L 771.772859 144.122606 
L 772.735024 136.645175 
L 774.659355 124.681284 
L 775.621521 138.140661 
L 776.583686 142.62712 
L 777.545852 133.654202 
L 778.508017 120.194825 
L 779.470182 118.699339 
L 780.432348 114.21288 
L 781.394513 135.149688 
L 782.356679 138.140661 
L 783.318844 130.663229 
L 784.28101 130.663229 
L 785.243175 135.149688 
L 786.205341 138.140661 
L 788.129672 129.167743 
L 789.091837 117.203853 
L 790.054002 111.221907 
L 791.016168 106.735448 
L 791.978333 123.185798 
L 792.940499 130.663229 
L 793.902664 124.681284 
L 794.86483 114.21288 
L 795.826995 99.258017 
L 796.789161 103.744476 
L 797.751326 103.744476 
L 798.713491 99.258017 
L 799.675657 93.276071 
L 800.637822 88.789612 
L 801.599988 79.816694 
L 802.562153 97.76253 
L 803.524319 97.76253 
L 804.486484 91.780585 
L 805.44865 94.771558 
L 806.410815 90.285099 
L 807.372981 87.294126 
L 808.335146 79.816694 
L 809.297311 82.807667 
L 810.259477 69.34829 
L 811.221642 63.366345 
L 812.183808 54.393427 
L 813.145973 55.888913 
L 814.108139 49.906968 
L 815.070304 58.879886 
L 816.03247 58.879886 
L 816.994635 76.825722 
L 817.9568 57.384399 
L 818.918966 60.375372 
L 820.843297 60.375372 
L 821.805462 58.879886 
L 822.767628 55.888913 
L 823.729793 46.915995 
L 824.691959 46.915995 
L 825.654124 49.906968 
L 826.61629 60.375372 
L 827.578455 49.906968 
L 828.54062 61.870858 
L 830.464951 64.861831 
L 831.427117 87.294126 
L 832.389282 106.735448 
L 833.351448 99.258017 
L 834.313613 66.357317 
L 835.275779 57.384399 
L 836.237944 54.393427 
L 837.200109 60.375372 
L 838.162275 57.384399 
L 839.12444 51.402454 
L 840.086606 60.375372 
L 841.048771 67.852804 
L 842.010937 97.76253 
L 842.973102 111.221907 
L 843.935268 106.735448 
L 844.897433 106.735448 
L 845.859599 100.753503 
L 846.821764 121.690312 
L 847.783929 111.221907 
L 849.70826 111.221907 
L 850.670426 100.753503 
L 851.632591 93.276071 
L 852.594757 91.780585 
L 853.556922 93.276071 
L 854.519088 121.690312 
L 855.481253 96.267044 
L 856.443418 115.708366 
L 857.405584 82.807667 
L 858.367749 91.780585 
L 859.329915 96.267044 
L 860.29208 84.303153 
L 861.254246 82.807667 
L 862.216411 85.79864 
L 863.178577 87.294126 
L 864.140742 90.285099 
L 865.102908 76.825722 
L 866.065073 72.339263 
L 867.989404 78.321208 
L 868.951569 87.294126 
L 869.913735 87.294126 
L 870.8759 81.312181 
L 872.800231 72.339263 
L 873.762397 69.34829 
L 874.724562 81.312181 
L 875.686727 63.366345 
L 876.648893 58.879886 
L 877.611058 57.384399 
L 878.573224 66.357317 
L 879.535389 63.366345 
L 880.497555 57.384399 
L 881.45972 63.366345 
L 882.421886 85.79864 
L 883.384051 91.780585 
L 884.346217 91.780585 
L 885.308382 84.303153 
L 886.270547 84.303153 
L 887.232713 93.276071 
L 888.194878 99.258017 
L 889.157044 90.285099 
L 891.081375 78.321208 
L 892.04354 81.312181 
L 893.005706 87.294126 
L 893.967871 84.303153 
L 894.930036 87.294126 
L 895.892202 72.339263 
L 896.854367 79.816694 
L 897.816533 81.312181 
L 898.778698 73.834749 
L 899.740864 81.312181 
L 900.703029 79.816694 
L 901.665195 90.285099 
L 902.62736 85.79864 
L 903.589526 84.303153 
L 904.551691 67.852804 
L 905.513856 67.852804 
L 906.476022 96.267044 
L 907.438187 91.780585 
L 908.400353 76.825722 
L 909.362518 81.312181 
L 910.324684 70.843776 
L 911.286849 78.321208 
L 912.249015 79.816694 
L 913.21118 88.789612 
L 914.173345 91.780585 
L 915.135511 96.267044 
L 916.097676 79.816694 
L 917.059842 96.267044 
L 918.022007 106.735448 
L 918.984173 108.230935 
L 919.946338 88.789612 
L 920.908504 96.267044 
L 921.870669 109.726421 
L 922.832835 117.203853 
L 923.795 132.158716 
L 923.795 132.158716 
" clip-path="url(#p036b8e6158)" style="fill: none; stroke: #66a3ff; stroke-width: 0.8; stroke-linecap: square"/>
   </g>
   <g id="patch_7">
    <path d="M 93.35 246.04 
L 93.35 10.8 
" style="fill: none; stroke: #000000; stroke-width: 0.8; stroke-linejoin: miter; stroke-linecap: square"/>
   </g>
   <g id="patch_8">
    <path d="M 963.34 246.04 
L 963.34 10.8 
" style="fill: none; stroke: #000000; stroke-width: 0.8; stroke-linejoin: miter; stroke-linecap: square"/>
   </g>
   <g id="patch_9">
    <path d="M 93.35 246.04 
L 963.34 246.04 
" style="fill: none; stroke: #000000; stroke-width: 0.8; stroke-linejoin: miter; stroke-linecap: square"/>
   </g>
   <g id="patch_10">
    <path d="M 93.35 10.8 
L 963.34 10.8 
" style="fill: none; stroke: #000000; stroke-width: 0.8; stroke-linejoin: miter; stroke-linecap: square"/>
   </g>
  </g>
 </g>
 <defs>
  <clipPath id="p036b8e6158">
   <rect x="93.35" y="10.8" width="869.99" height="235.24"/>
  </clipPath>
 </defs>
</svg>
